<?xml version="1.0" encoding="UTF-8"?>
<!-- Generator: Adobe Illustrator 23.0.1, SVG Export Plug-In . SVG Version: 6.00 Build 0)  -->
<svg version="1.1" id="Layer_1" xmlns="http://www.w3.org/2000/svg" xmlns:xlink="http://www.w3.org/1999/xlink" x="0px" y="0px" width="42px" height="42px" viewBox="0 0 42 42" style="enable-background:new 0 0 42 42;" xml:space="preserve">
<style type="text/css">
	.st0{fill:#515050;}
</style>
<path class="st0" d="M30.8062,11.0688C28.1875,8.4438,24.7,7,20.9937,7c-7.65,0-13.875,6.225-13.875,13.875  c0,2.4438,0.6375,4.8312,1.85,6.9375L7,35l7.3562-1.9313c2.025,1.1063,4.3063,1.6875,6.6312,1.6875h0.0063  c7.6438,0,14.0063-6.225,14.0063-13.875C35,17.175,33.425,13.6938,30.8062,11.0688z M20.988,33.4169  c-2.2545,0-4.4614-0.6043-6.3833-1.7453L14.1498,31.4L9.41,32.6426l1.2631-4.6244l-0.2988-0.4753  c-1.2563-1.9965-1.915-4.2985-1.915-6.6685c0-6.9061,5.6227-12.5287,12.5356-12.5287c3.3477,0,6.4919,1.3038,8.855,3.6737  c2.3632,2.3699,3.8163,5.514,3.8096,8.8619C33.6595,27.7943,27.8942,33.4169,20.988,33.4169z"/>
<path class="st0" d="M27.3187,23.7813c-0.3438-0.175-2.05-1.0125-2.3687-1.125c-0.3188-0.1187-0.55-0.175-0.7813,0.175  c-0.2313,0.35-0.8937,1.125-1.1,1.3625c-0.2,0.2313-0.4063,0.2625-0.75,0.0875c-2.0375-1.0187-3.375-1.8188-4.7188-4.125  c-0.3563-0.6125,0.3563-0.5688,1.0187-1.8938c0.1125-0.2312,0.0563-0.4312-0.0313-0.6062c-0.0875-0.175-0.7813-1.8813-1.0687-2.575  c-0.2813-0.675-0.5688-0.5813-0.7813-0.5938c-0.2-0.0125-0.4313-0.0125-0.6625-0.0125c-0.2312,0-0.6062,0.0875-0.925,0.4312  c-0.3188,0.35-1.2125,1.1875-1.2125,2.8938c0,1.7062,1.2437,3.3562,1.4125,3.5875c0.175,0.2313,2.4437,3.7313,5.925,5.2375  c2.2,0.95,3.0625,1.0313,4.1625,0.8687c0.6688-0.1,2.05-0.8375,2.3375-1.65s0.2875-1.5063,0.2-1.65  C27.8937,24.0375,27.6625,23.95,27.3187,23.7813z"/>
</svg>