<?xml version="1.0" encoding="UTF-8"?>
<!-- Generator: Adobe Illustrator 23.0.1, SVG Export Plug-In . SVG Version: 6.00 Build 0)  -->
<svg version="1.1" id="Layer_1" xmlns="http://www.w3.org/2000/svg" xmlns:xlink="http://www.w3.org/1999/xlink" x="0px" y="0px" width="42px" height="42px" viewBox="0 0 42 42" style="enable-background:new 0 0 42 42;" xml:space="preserve">
<style type="text/css">
	.st0{fill:#515050;}
</style>
<path class="st0" d="M36.2226,13.3253c-0.3654-1.3759-1.4421-2.4595-2.8091-2.8273C30.9357,9.8298,21,9.8298,21,9.8298  s-9.9357,0-12.4135,0.6682c-1.367,0.3678-2.4437,1.4514-2.8091,2.8273c-0.6639,2.4939-0.6639,7.6973-0.6639,7.6973  s0,5.2033,0.6639,7.6973c0.3654,1.3759,1.4421,2.4144,2.8091,2.7821C11.0643,32.1702,21,32.1702,21,32.1702s9.9357,0,12.4135-0.6682  c1.367-0.3677,2.4437-1.4062,2.8091-2.7821c0.6639-2.4939,0.6639-7.6973,0.6639-7.6973S36.8865,15.8192,36.2226,13.3253z   M35.4139,28.0435c-0.346,1.2553-1.3655,2.2028-2.6599,2.5383C30.4079,31.1915,21,31.1915,21,31.1915s-9.4079,0-11.754-0.6096  c-1.2944-0.3355-2.3139-1.283-2.6599-2.5383c-0.6286-2.2755-0.6286-7.0229-0.6286-7.0229s0-4.7475,0.6286-7.0229  c0.346-1.2554,1.3655-2.244,2.6599-2.5796C11.5921,10.8085,21,10.8085,21,10.8085s9.4079,0,11.754,0.6096  c1.2944,0.3356,2.3139,1.3242,2.6599,2.5796c0.6286,2.2754,0.6286,7.0229,0.6286,7.0229S36.0425,25.7681,35.4139,28.0435z"/>
<polygon class="st0" points="17.7505,25.7468 17.7505,16.2983 26.0548,21.0227 17.7505,25.7468 "/>
</svg>