<?xml version="1.0" encoding="utf-8"?>
<!-- Generator: Adobe Illustrator 25.4.1, SVG Export Plug-In . SVG Version: 6.00 Build 0)  -->
<svg version="1.1" id="Layer_1" xmlns="http://www.w3.org/2000/svg" xmlns:xlink="http://www.w3.org/1999/xlink" x="0px" y="0px"
	 viewBox="0 0 46 64" style="enable-background:new 0 0 46 64;" xml:space="preserve">
<style type="text/css">
	.st0{fill:#515050;}
	.st1{fill:#E1006E;}
	.st2{fill:#82BB25;}
	.st3{fill:#FFFFFF;}
</style>
<path class="st0" d="M28.628,4.074H8.271c-2.645,0-4.79,2.216-4.79,4.949v38.682v0.972v6.507c0,2.619,2.055,4.743,4.59,4.743h20.756
	c2.535,0,4.59-2.123,4.59-4.743V48.1v-0.396V9.024C33.418,6.29,31.273,4.074,28.628,4.074z M31.375,47.706v2.104h0.005v0.432
	c0.001,0,0.001,0,0.002,0v4.944c0,1.455-1.146,2.639-2.554,2.639H8.071c-1.409,0-2.554-1.184-2.554-2.639v-4.94h0.002V49.81h0.006
	v-2.104H5.517V9.024c0-1.569,1.235-2.846,2.754-2.846h3.545c-0.023,0.058-0.036,0.121-0.036,0.187v0.659
	c0,0.273,0.214,0.495,0.479,0.495h12.383c0.265,0,0.479-0.221,0.479-0.495V6.365c0-0.066-0.013-0.129-0.036-0.187h3.545
	c1.519,0,2.754,1.277,2.754,2.846v38.682C31.384,47.705,31.375,47.705,31.375,47.706z"/>
<ellipse class="st1" cx="18.449" cy="52.783" rx="1.723" ry="1.781"/>
<path d="M30.503,50.588c0.091,0.058,0.142,0.086,0.142,0.086L30.503,50.588z"/>
<circle class="st2" cx="31.71" cy="26.15" r="11.574"/>
<circle class="st3" cx="31.71" cy="26.151" r="9.532"/>
<path class="st1" d="M34.917,29.399c-0.859,0.849-1.998,1.317-3.207,1.317c-2.527,0-4.583-2.047-4.583-4.564v-0.808l1.168,1.168
	l0.72-0.72l-2.397-2.397l-2.397,2.397l0.72,0.72l1.168-1.168v0.808c0,3.078,2.513,5.583,5.602,5.583c1.479,0,2.871-0.572,3.923-1.61
	L34.917,29.399z"/>
<path class="st1" d="M38.48,25.791l-1.168,1.168v-0.808c0-3.078-2.513-5.583-5.602-5.583c-1.478,0-2.871,0.572-3.923,1.611
	l0.716,0.725c0.859-0.849,1.999-1.317,3.207-1.317c2.527,0,4.583,2.047,4.583,4.564v0.808l-1.168-1.168l-0.72,0.72l2.397,2.397
	l2.397-2.397L38.48,25.791z"/>
</svg>
