<?xml version="1.0" encoding="utf-8"?>
<!-- Generator: Adobe Illustrator 25.4.1, SVG Export Plug-In . SVG Version: 6.00 Build 0)  -->
<svg version="1.1" id="Layer_1" xmlns="http://www.w3.org/2000/svg" xmlns:xlink="http://www.w3.org/1999/xlink" x="0px" y="0px"
	 viewBox="0 0 46 64" style="enable-background:new 0 0 46 64;" xml:space="preserve">
<style type="text/css">
	.st0{fill:#515050;}
	.st1{fill:#E1006E;}
	.st2{fill:#82BB25;}
	.st3{fill:#FFFFFF;}
</style>
<path class="st0" d="M28.555,4.073H8.198c-2.645,0-4.79,2.216-4.79,4.949v38.682v0.972v6.507c0,2.619,2.055,4.743,4.59,4.743h20.756
	c2.535,0,4.59-2.123,4.59-4.743V48.1v-0.396V9.023C33.345,6.289,31.2,4.073,28.555,4.073z M31.303,47.705v2.104h0.005v0.432
	c0.001,0,0.001,0,0.002,0v4.944c0,1.455-1.146,2.639-2.554,2.639H7.998c-1.409,0-2.554-1.184-2.554-2.639v-4.94h0.002v-0.436h0.006
	v-2.104H5.444V9.023c0-1.569,1.235-2.846,2.754-2.846h3.545c-0.023,0.058-0.036,0.121-0.036,0.187v0.659
	c0,0.273,0.214,0.495,0.479,0.495h12.383c0.265,0,0.479-0.221,0.479-0.495V6.364c0-0.066-0.013-0.129-0.036-0.187h3.545
	c1.519,0,2.754,1.277,2.754,2.846v38.682C31.311,47.705,31.303,47.705,31.303,47.705z"/>
<ellipse class="st1" cx="18.376" cy="52.782" rx="1.723" ry="1.781"/>
<path d="M30.43,50.587c0.091,0.058,0.142,0.086,0.142,0.086L30.43,50.587z"/>
<circle class="st2" cx="31.638" cy="26.15" r="11.574"/>
<circle class="st3" cx="31.638" cy="26.15" r="9.532"/>
<path class="st1" d="M27.498,28.17v-5.941h-0.99v-0.99h1.485c0.273,0,0.495,0.222,0.495,0.495v5.941h6.158l0.99-3.961h-6.158v-0.99
	h6.793c0.273,0,0.495,0.222,0.495,0.495c0,0.041-0.005,0.081-0.015,0.12l-1.238,4.951c-0.055,0.22-0.253,0.375-0.48,0.375h-7.041
	C27.72,28.666,27.498,28.444,27.498,28.17z M28.489,31.636c-0.547,0-0.99-0.443-0.99-0.99s0.443-0.99,0.99-0.99
	s0.99,0.443,0.99,0.99S29.035,31.636,28.489,31.636z M34.43,31.636c-0.547,0-0.99-0.443-0.99-0.99s0.443-0.99,0.99-0.99
	s0.99,0.443,0.99,0.99S34.977,31.636,34.43,31.636z"/>
</svg>
