<?xml version="1.0" encoding="utf-8"?>
<!-- Generator: Adobe Illustrator 25.4.1, SVG Export Plug-In . SVG Version: 6.00 Build 0)  -->
<svg version="1.1" id="Layer_1" xmlns="http://www.w3.org/2000/svg" xmlns:xlink="http://www.w3.org/1999/xlink" x="0px" y="0px"
	 viewBox="0 0 46 64" style="enable-background:new 0 0 46 64;" xml:space="preserve">
<style type="text/css">
	.st0{fill:#515050;}
	.st1{fill:#E1006E;}
	.st2{fill:#82BB25;}
	.st3{fill:#FFFFFF;}
</style>
<path d="M29.462,50.587c0.091,0.058,0.142,0.086,0.142,0.086L29.462,50.587z"/>
<path class="st0" d="M28.619,4.073H8.262c-2.645,0-4.79,2.216-4.79,4.949v38.682v0.972v6.507c0,2.619,2.055,4.743,4.59,4.743h20.756
	c2.535,0,4.59-2.123,4.59-4.743V48.1v-0.396V9.023C33.409,6.289,31.264,4.073,28.619,4.073z M31.366,47.705v2.104h0.005v0.432
	c0.001,0,0.001,0,0.002,0v4.944c0,1.455-1.146,2.639-2.554,2.639H8.062c-1.409,0-2.554-1.184-2.554-2.639v-4.94H5.51v-0.436h0.006
	v-2.104H5.508V9.023c0-1.569,1.235-2.846,2.754-2.846h3.545c-0.023,0.058-0.036,0.121-0.036,0.187v0.659
	c0,0.273,0.214,0.495,0.479,0.495h12.382c0.265,0,0.479-0.221,0.479-0.495V6.364c0-0.066-0.013-0.129-0.036-0.187h3.545
	c1.519,0,2.754,1.277,2.754,2.846v38.682C31.374,47.705,31.366,47.705,31.366,47.705z"/>
<ellipse class="st1" cx="18.44" cy="52.782" rx="1.723" ry="1.781"/>
<path class="st2" d="M39.08,14.386H23.665c-0.448,0-0.813,0.445-0.813,0.991v19.771c0,0.547,0.365,0.992,0.813,0.992H39.08
	c0.448,0,0.813-0.445,0.813-0.992V15.377C39.893,14.831,39.528,14.386,39.08,14.386z"/>
<path class="st3" d="M37.869,16.045H24.918c-0.377,0-0.683,0.362-0.683,0.806v16.653c0,0.444,0.306,0.806,0.683,0.806h12.951
	c0.377,0,0.683-0.362,0.683-0.806V16.851C38.552,16.407,38.246,16.045,37.869,16.045z"/>
<path d="M30.494,50.587c0.091,0.058,0.142,0.086,0.142,0.086L30.494,50.587z"/>
<path class="st1" d="M31.073,18.322H26c-0.259,0-0.469-0.21-0.469-0.469l0,0c0-0.259,0.21-0.469,0.469-0.469h5.073
	c0.259,0,0.469,0.21,0.469,0.469l0,0C31.543,18.112,31.333,18.322,31.073,18.322z"/>
<path class="st1" d="M30.076,23.195h-3.814c-0.259,0-0.469-0.21-0.469-0.469l0,0c0-0.259,0.21-0.469,0.469-0.469h3.814
	c0.259,0,0.469,0.21,0.469,0.469l0,0C30.545,22.985,30.335,23.195,30.076,23.195z"/>
<path class="st1" d="M36.486,23.195h-3.814c-0.259,0-0.469-0.21-0.469-0.469l0,0c0-0.259,0.21-0.469,0.469-0.469h3.814
	c0.259,0,0.469,0.21,0.469,0.469l0,0C36.956,22.985,36.746,23.195,36.486,23.195z"/>
<path class="st1" d="M30.076,26.146h-3.814c-0.259,0-0.469-0.21-0.469-0.469l0,0c0-0.259,0.21-0.469,0.469-0.469h3.814
	c0.259,0,0.469,0.21,0.469,0.469l0,0C30.545,25.936,30.335,26.146,30.076,26.146z"/>
<path class="st1" d="M36.486,26.146h-3.814c-0.259,0-0.469-0.21-0.469-0.469l0,0c0-0.259,0.21-0.469,0.469-0.469h3.814
	c0.259,0,0.469,0.21,0.469,0.469l0,0C36.956,25.936,36.746,26.146,36.486,26.146z"/>
<path class="st1" d="M33.929,29.467h-7.668c-0.259,0-0.469-0.21-0.469-0.469l0,0c0-0.259,0.21-0.469,0.469-0.469h7.668
	c0.259,0,0.469,0.21,0.469,0.469l0,0C34.399,29.257,34.188,29.467,33.929,29.467z"/>
<path class="st1" d="M36.725,20.379H26.001c-0.259,0-0.469-0.21-0.469-0.469l0,0c0-0.259,0.21-0.469,0.469-0.469h10.724
	c0.259,0,0.469,0.21,0.469,0.469l0,0C37.194,20.169,36.984,20.379,36.725,20.379z"/>
<path class="st1" d="M37.414,32.603h-12.08c-0.276,0-0.5-0.224-0.5-0.5v-0.197c0-0.276,0.224-0.5,0.5-0.5h12.081
	c0.276,0,0.5,0.224,0.5,0.5v0.197C37.914,32.379,37.69,32.603,37.414,32.603z"/>
</svg>
