<?xml version="1.0" encoding="utf-8"?>
<!-- Generator: Adobe Illustrator 25.4.1, SVG Export Plug-In . SVG Version: 6.00 Build 0)  -->
<svg version="1.1" id="Layer_1" xmlns="http://www.w3.org/2000/svg" xmlns:xlink="http://www.w3.org/1999/xlink" x="0px" y="0px"
	 viewBox="0 0 46 64" style="enable-background:new 0 0 46 64;" xml:space="preserve">
<style type="text/css">
	.st0{fill:#515050;}
	.st1{fill:#E1006E;}
	.st2{fill:#82BB25;}
	.st3{fill:#FFFFFF;}
</style>
<path class="st0" d="M28.532,4.427H8.175c-2.645,0-4.79,2.216-4.79,4.949v38.682v0.972v6.507c0,2.619,2.055,4.743,4.59,4.743h20.756
	c2.535,0,4.59-2.123,4.59-4.743v-7.083v-0.396V9.376C33.322,6.643,31.178,4.427,28.532,4.427z M31.28,48.058v2.104h0.005v0.432
	c0.001,0,0.001,0,0.002,0v4.944c0,1.455-1.146,2.639-2.554,2.639H7.976c-1.409,0-2.554-1.184-2.554-2.639v-4.94h0.002v-0.436H5.43
	v-2.104H5.422V9.376c0-1.569,1.235-2.846,2.754-2.846h3.545c-0.023,0.058-0.036,0.121-0.036,0.187v0.659
	c0,0.273,0.214,0.495,0.479,0.495h12.383c0.265,0,0.479-0.221,0.479-0.495V6.717c0-0.066-0.013-0.129-0.036-0.187h3.545
	c1.519,0,2.754,1.277,2.754,2.846v38.682H31.28z"/>
<ellipse class="st1" cx="18.354" cy="53.135" rx="1.723" ry="1.781"/>
<path class="st2" d="M38.993,14.739H23.579c-0.448,0-0.813,0.445-0.813,0.991v9.771c0,0.547,0.365,0.992,0.813,0.992h15.415
	c0.448,0,0.813-0.445,0.813-0.992V15.73C39.806,15.184,39.442,14.739,38.993,14.739z"/>
<path class="st3" d="M37.723,16.203H24.849c-0.375,0-0.679,0.359-0.679,0.801v7.223c0,0.442,0.305,0.801,0.679,0.801h12.874
	c0.374,0,0.679-0.359,0.679-0.801v-7.223C38.402,16.563,38.098,16.203,37.723,16.203z"/>
<path d="M30.408,50.94c0.091,0.058,0.142,0.086,0.142,0.086L30.408,50.94z"/>
<path class="st1" d="M30.987,18.387h-5.042c-0.258,0-0.467-0.209-0.467-0.467l0,0c0-0.258,0.209-0.467,0.467-0.467h5.042
	c0.258,0,0.467,0.209,0.467,0.467l0,0C31.454,18.179,31.245,18.387,30.987,18.387z"/>
<path class="st1" d="M36.606,20.432H25.945c-0.258,0-0.467-0.209-0.467-0.467l0,0c0-0.258,0.209-0.467,0.467-0.467h10.661
	c0.258,0,0.467,0.209,0.467,0.467l0,0C37.072,20.223,36.863,20.432,36.606,20.432z"/>
<path class="st1" d="M37.455,23.621h-12.36c-0.276,0-0.5-0.224-0.5-0.5v-0.33c0-0.276,0.224-0.5,0.5-0.5h12.36
	c0.276,0,0.5,0.224,0.5,0.5v0.33C37.955,23.397,37.732,23.621,37.455,23.621z"/>
</svg>
