<?xml version="1.0" encoding="utf-8"?>
<!-- Generator: Adobe Illustrator 25.4.1, SVG Export Plug-In . SVG Version: 6.00 Build 0)  -->
<svg version="1.1" id="Layer_1" xmlns="http://www.w3.org/2000/svg" xmlns:xlink="http://www.w3.org/1999/xlink" x="0px" y="0px"
	 viewBox="0 0 46 64" style="enable-background:new 0 0 46 64;" xml:space="preserve">
<style type="text/css">
	.st0{fill:#515050;}
	.st1{fill:#E1006E;}
	.st2{fill:#82BB25;}
	.st3{fill:#FFFFFF;}
</style>
<path class="st0" d="M28.649,4.073H8.292c-2.645,0-4.79,2.216-4.79,4.949v38.682v0.972v6.507c0,2.619,2.055,4.743,4.59,4.743h20.756
	c2.535,0,4.59-2.123,4.59-4.743V48.1v-0.396V9.023C33.439,6.289,31.294,4.073,28.649,4.073z M31.397,47.705v2.104h0.005v0.432
	c0.001,0,0.001,0,0.002,0v4.944c0,1.455-1.146,2.639-2.554,2.639H8.092c-1.409,0-2.554-1.184-2.554-2.639v-4.94H5.54v-0.436h0.006
	v-2.104H5.538V9.023c0-1.569,1.235-2.846,2.754-2.846h3.545c-0.023,0.058-0.036,0.121-0.036,0.187v0.659
	c0,0.273,0.214,0.495,0.479,0.495h12.383c0.265,0,0.479-0.221,0.479-0.495V6.364c0-0.066-0.013-0.129-0.036-0.187h3.545
	c1.519,0,2.754,1.277,2.754,2.846v38.682C31.405,47.705,31.397,47.705,31.397,47.705z"/>
<ellipse class="st1" cx="18.47" cy="52.782" rx="1.723" ry="1.781"/>
<path d="M30.524,50.587c0.091,0.058,0.142,0.086,0.142,0.086L30.524,50.587z"/>
<circle class="st2" cx="31.732" cy="26.15" r="11.574"/>
<circle class="st3" cx="31.732" cy="26.15" r="9.532"/>
<path class="st1" d="M35.873,30.587h-1.035v-1.035c0-0.858-0.695-1.553-1.553-1.553h-3.106c-0.858,0-1.553,0.695-1.553,1.553v1.035
	h-1.035v-1.035c0-1.43,1.159-2.589,2.589-2.589h3.106c1.43,0,2.589,1.159,2.589,2.589v1.035H35.873z M31.732,25.927
	c-1.716,0-3.106-1.391-3.106-3.106c0-1.716,1.391-3.106,3.106-3.106s3.106,1.391,3.106,3.106
	C34.838,24.536,33.447,25.927,31.732,25.927z M31.732,24.891c1.144,0,2.071-0.927,2.071-2.071s-0.927-2.071-2.071-2.071
	s-2.071,0.927-2.071,2.071C29.661,23.964,30.588,24.891,31.732,24.891z"/>
</svg>
