<?xml version="1.0" encoding="utf-8"?>
<!-- Generator: Adobe Illustrator 25.4.1, SVG Export Plug-In . SVG Version: 6.00 Build 0)  -->
<svg version="1.1" id="Layer_1" xmlns="http://www.w3.org/2000/svg" xmlns:xlink="http://www.w3.org/1999/xlink" x="0px" y="0px"
	 viewBox="0 0 46 64" style="enable-background:new 0 0 46 64;" xml:space="preserve">
<style type="text/css">
	.st0{fill:#515050;}
	.st1{fill:#E1006E;}
	.st2{fill:#82BB25;}
	.st3{fill:#FFFFFF;}
</style>
<path class="st0" d="M28.659,4.074H8.302c-2.645,0-4.79,2.216-4.79,4.949v38.682v0.972v6.507c0,2.619,2.055,4.743,4.59,4.743h20.756
	c2.535,0,4.59-2.123,4.59-4.743V48.1v-0.396V9.024C33.449,6.29,31.305,4.074,28.659,4.074z M31.407,47.706v2.104h0.005v0.432
	c0.001,0,0.001,0,0.002,0v4.944c0,1.455-1.146,2.639-2.554,2.639H8.103c-1.409,0-2.554-1.184-2.554-2.639v-4.94h0.002V49.81h0.006
	v-2.104H5.549V9.024c0-1.569,1.235-2.846,2.754-2.846h3.545c-0.023,0.058-0.036,0.121-0.036,0.187v0.659
	c0,0.273,0.214,0.495,0.479,0.495h12.383c0.265,0,0.479-0.221,0.479-0.495V6.365c0-0.066-0.013-0.129-0.036-0.187h3.545
	c1.519,0,2.754,1.277,2.754,2.846v38.682C31.416,47.705,31.407,47.705,31.407,47.706z"/>
<ellipse class="st1" cx="18.481" cy="52.783" rx="1.723" ry="1.781"/>
<path class="st2" d="M39.12,14.387H23.706c-0.448,0-0.813,0.445-0.813,0.991v19.771c0,0.547,0.365,0.992,0.813,0.992h15.415
	c0.448,0,0.813-0.445,0.813-0.992V15.378C39.933,14.832,39.569,14.387,39.12,14.387z"/>
<path class="st3" d="M37.91,16.046H24.959c-0.377,0-0.683,0.362-0.683,0.806v16.653c0,0.444,0.306,0.806,0.683,0.806H37.91
	c0.377,0,0.683-0.362,0.683-0.806V16.852C38.593,16.408,38.287,16.046,37.91,16.046z"/>
<path d="M30.535,50.588c0.091,0.058,0.142,0.086,0.142,0.086L30.535,50.588z"/>
<path class="st1" d="M34.054,33.849c-2.181,0-3.955-1.774-3.955-3.955s1.774-3.955,3.955-3.955c2.181,0,3.955,1.774,3.955,3.955
	C38.009,32.076,36.235,33.849,34.054,33.849z M34.054,26.357c-1.951,0-3.538,1.587-3.538,3.538s1.587,3.538,3.538,3.538
	s3.538-1.587,3.538-3.538C37.592,27.944,36.005,26.357,34.054,26.357z"/>
<path class="st1" d="M32.14,33.322h-5.916c-0.612,0-1.109-0.497-1.109-1.109V22.125c0-0.611,0.497-1.109,1.109-1.109h10.181
	c0.611,0,1.108,0.497,1.108,1.109v5.912c0,0.115-0.093,0.208-0.208,0.208s-0.208-0.093-0.208-0.208v-5.912
	c0-0.381-0.31-0.692-0.692-0.692H26.224c-0.382,0-0.692,0.31-0.692,0.692v10.088c0,0.382,0.31,0.692,0.692,0.692h5.916
	c0.115,0,0.208,0.093,0.208,0.208C32.349,33.229,32.255,33.322,32.14,33.322z"/>
<path class="st1" d="M31.488,27.378h-6.165c-0.115,0-0.208-0.093-0.208-0.208c0-0.115,0.093-0.208,0.208-0.208h6.165
	c0.115,0,0.208,0.093,0.208,0.208C31.697,27.285,31.603,27.378,31.488,27.378z"/>
<path class="st1" d="M31.488,27.378c-0.115,0-0.208-0.093-0.208-0.208v-5.944c0-0.115,0.093-0.208,0.208-0.208
	s0.208,0.093,0.208,0.208v5.944C31.697,27.285,31.603,27.378,31.488,27.378z"/>
<path class="st1" d="M28.406,25.498c-0.115,0-0.208-0.093-0.208-0.208v-2.576c0-0.115,0.093-0.208,0.208-0.208
	s0.208,0.093,0.208,0.208v2.576C28.614,25.404,28.521,25.498,28.406,25.498z"/>
<path class="st1" d="M28.406,25.498c-0.115,0-0.208-0.093-0.208-0.208v-2.576c0-0.115,0.093-0.208,0.208-0.208
	s0.208,0.093,0.208,0.208v2.576C28.614,25.404,28.521,25.498,28.406,25.498z"/>
<path class="st1" d="M28.406,25.498c-0.115,0-0.208-0.093-0.208-0.208v-2.576c0-0.115,0.093-0.208,0.208-0.208
	s0.208,0.093,0.208,0.208v2.576C28.614,25.404,28.521,25.498,28.406,25.498z"/>
<path class="st1" d="M29.694,24.21h-2.575c-0.115,0-0.208-0.093-0.208-0.208c0-0.115,0.093-0.208,0.208-0.208h2.575
	c0.115,0,0.208,0.093,0.208,0.208C29.902,24.118,29.809,24.21,29.694,24.21z"/>
<path class="st1" d="M27.495,31.457c-0.053,0-0.107-0.02-0.147-0.061c-0.081-0.081-0.081-0.213,0-0.295l1.821-1.821
	c0.081-0.081,0.213-0.081,0.295,0c0.081,0.081,0.081,0.213,0,0.295l-1.821,1.821C27.602,31.437,27.549,31.457,27.495,31.457z"/>
<path class="st1" d="M27.495,31.457c-0.053,0-0.107-0.02-0.147-0.061c-0.081-0.081-0.081-0.213,0-0.295l1.821-1.821
	c0.081-0.081,0.213-0.081,0.295,0c0.081,0.081,0.081,0.213,0,0.295l-1.821,1.821C27.602,31.437,27.549,31.457,27.495,31.457z"/>
<path class="st1" d="M27.495,31.457c-0.053,0-0.107-0.02-0.147-0.061c-0.081-0.081-0.081-0.213,0-0.295l1.821-1.821
	c0.081-0.081,0.213-0.081,0.295,0c0.081,0.081,0.081,0.213,0,0.295l-1.821,1.821C27.602,31.437,27.549,31.457,27.495,31.457z"/>
<path class="st1" d="M29.316,31.457c-0.053,0-0.107-0.02-0.147-0.061l-1.821-1.821c-0.081-0.081-0.081-0.213,0-0.295
	c0.081-0.081,0.213-0.081,0.295,0l1.821,1.821c0.081,0.081,0.081,0.213,0,0.295C29.423,31.437,29.37,31.457,29.316,31.457z"/>
<path class="st1" d="M35.682,24.21h-2.576c-0.115,0-0.208-0.093-0.208-0.208c0-0.115,0.093-0.208,0.208-0.208h2.576
	c0.115,0,0.208,0.093,0.208,0.208C35.89,24.118,35.797,24.21,35.682,24.21z"/>
<path class="st1" d="M35.342,29.458h-2.576c-0.115,0-0.208-0.093-0.208-0.208c0-0.115,0.093-0.208,0.208-0.208h2.576
	c0.115,0,0.208,0.093,0.208,0.208C35.55,29.366,35.457,29.458,35.342,29.458z"/>
<path class="st1" d="M35.342,30.85h-2.576c-0.115,0-0.208-0.093-0.208-0.208c0-0.115,0.093-0.208,0.208-0.208h2.576
	c0.115,0,0.208,0.093,0.208,0.208C35.55,30.757,35.457,30.85,35.342,30.85z"/>
</svg>
