<svg id="Layer_1" xmlns="http://www.w3.org/2000/svg" viewBox="0 0 100 32"><style>.st0{fill:#ec0080}.st1{fill:#8bc53f}</style><path class="st0" d="M84.289 1.944h-1.053l-6.415 10.133h5.489v2.154h1.979v-2.154h1.356v-2.074h-1.356V1.944zm-1.979 8.059l-2.027.016 2.027-3.447v3.431zM92.778 7.051v2.074h2.49v2.346a4 4 0 0 1-1.197.614 4.364 4.364 0 0 1-1.308.199 4.197 4.197 0 0 1-3.886-2.569 4.103 4.103 0 0 1-.327-1.628c0-.575.109-1.117.327-1.628a4.213 4.213 0 0 1 2.242-2.242 4.154 4.154 0 0 1 1.643-.326c.543 0 1.066.101 1.572.303.505.202.955.489 1.348.862l1.484-1.484a6.555 6.555 0 0 0-2.035-1.324 6.179 6.179 0 0 0-2.37-.463c-.872 0-1.691.165-2.457.495-.766.33-1.436.78-2.011 1.348a6.283 6.283 0 0 0-1.356 2.003 6.143 6.143 0 0 0-.495 2.457c0 .872.165 1.691.495 2.457a6.3 6.3 0 0 0 1.356 2.003 6.436 6.436 0 0 0 2.011 1.348c.766.33 1.585.495 2.457.495.83 0 1.62-.154 2.37-.463a6.603 6.603 0 0 0 2.035-1.324l.032-.096V7.051h-4.42z"/><path class="st1" d="M5.691 4.864h9.158L5.126 18.078v1.614h14.891v-2.834H10.01l9.485-13.269.013-.004V3.57l.004-.005-.004.001v-1.63H5.691zM44.184 5.21h5.122c1.88-.02 3.439.804 3.295 3.357v11.125h3.33V8.137c.026-4.523-2.987-6.198-6.247-6.201h-8.991v17.755h3.491V5.21zM57.297 10.855c0 5.085 4.594 9.232 10.227 9.232 2.125 0 4.101-.59 5.739-1.598l.026-.015v-7.251h-3.355v5.489a7.598 7.598 0 0 1-2.135.305c-3.824 0-6.943-2.815-6.943-6.268s3.119-6.268 6.943-6.268c1.561 0 3.004.469 4.166 1.259l1.324-2.502a10.935 10.935 0 0 0-5.766-1.614c-5.632-.001-10.226 4.146-10.226 9.231zM39.124 10.873c0-5.094-4.156-9.25-9.25-9.25s-9.25 4.156-9.25 9.25c0 4.838 3.749 8.827 8.489 9.216v-3.261a6.006 6.006 0 0 1 .761-11.963 6.006 6.006 0 1 1 .761 11.963v3.261c4.74-.389 8.489-4.378 8.489-9.216z"/><path class="st0" d="M40.693 30.768h1.028l.413-.941h2.186l.412.941h1.028l-2.534-5.791-2.533 5.791zm1.853-1.882l.68-1.564.681 1.564h-1.361zM52.948 28.611l-3.352-3.634v5.791h.941v-3.402L53.889 31v-5.806h-.941zM55.336 30.768h3.475v-.941h-2.534v-1.375h2.245v-.941h-2.245v-1.376h2.534v-.941h-3.475zM64.334 28.64l-.543-1.252.956-2.194h-1.028l-.442 1.021-.448-1.021h-1.028l.962 2.194-.55 1.252-1.505-3.446H59.68l2.533 5.791 1.064-2.424 1.057 2.424 2.534-5.791H65.84zM74.298 26.009a2.806 2.806 0 0 0-.887-.597 2.725 2.725 0 0 0-1.086-.217h-1.621v5.574h1.621c.386 0 .748-.072 1.086-.217.338-.145.633-.344.887-.597.253-.253.452-.549.597-.887.145-.338.217-.7.217-1.086s-.072-.748-.217-1.086a2.79 2.79 0 0 0-.597-.887zm-.271 2.693a1.838 1.838 0 0 1-1.7 1.125h-.68v-3.692h.68a1.854 1.854 0 0 1 1.306.539 1.849 1.849 0 0 1 .394 2.028zM79.452 28.17a1.603 1.603 0 0 0 .713-1.346 1.634 1.634 0 0 0-1.629-1.629h-2.193v5.574h.941v-2.316h.673l1.158 2.316h1.086l-1.238-2.374c.179-.049.342-.124.489-.225zm-.916-.659h-1.252v-1.375h1.252c.092 0 .18.018.264.054a.687.687 0 0 1-.264 1.321zM81.432 30.768h3.474v-.941h-2.533v-1.375h2.244v-.941h-2.244v-1.376h2.533v-.941h-3.474zM85.775 30.768h1.028l.413-.941h2.186l.413.941h1.028l-2.534-5.791-2.534 5.791zm1.853-1.882l.68-1.564.681 1.564h-1.361zM91.892 24.977v5.791h.941v-2.917l1.712 2.222 1.712-2.222v2.917h.941v-5.791l-2.653 3.627z"/></svg>