<?xml version="1.0" encoding="utf-8"?>
<!-- Generator: Adobe Illustrator 22.0.0, SVG Export Plug-In . SVG Version: 6.00 Build 0)  -->
<svg version="1.1" id="Layer_1" xmlns="http://www.w3.org/2000/svg" xmlns:xlink="http://www.w3.org/1999/xlink" x="0px" y="0px"
	 width="52px" height="52px" viewBox="0 0 52 52" style="enable-background:new 0 0 52 52;" xml:space="preserve">
<style type="text/css">
	.st0{fill:#FFFFFF;stroke:#FF007F;stroke-width:1.7377;stroke-miterlimit:10;}
	.st1{fill:none;stroke:#FF007F;stroke-miterlimit:10;}
	.st2{fill:#FFFFFF;stroke:#FF007F;stroke-width:1.719;stroke-miterlimit:10;}
</style>
<path class="st0" d="M22.731,15.285c-9.352,0-16.934,6.634-16.934,14.817c0,5.001,2.837,9.419,7.174,12.102
	c-0.699,1.625-1.721,3.27-2.724,4.352c-0.191,0.205-0.216,0.505-0.104,0.762c0.112,0.257,0.391,0.423,0.672,0.423
	c2.401,0,6.253-0.956,9.256-3.023c0.869,0.12,1.752,0.201,2.659,0.201c9.352,0,16.934-6.634,16.934-14.817
	S32.083,15.285,22.731,15.285z"/>
<path class="st1" d="M27.035,3.889c5.755,0,10.42,4.082,10.42,9.117c0,3.077-1.745,5.796-4.414,7.447
	c0.43,1,1.059,2.012,1.676,2.678c0.117,0.126,0.133,0.311,0.064,0.469c-0.069,0.158-0.241,0.26-0.413,0.26
	c-1.477,0-3.848-0.588-5.696-1.86c-0.534,0.074-1.078,0.124-1.636,0.124c-5.755,0-10.42-4.082-10.42-9.117S21.28,3.889,27.035,3.889
	z"/>
<path class="st2" d="M33.455,20.481c7.046,0,12.757,4.998,12.757,11.163c0,3.768-2.137,7.096-5.405,9.117
	c0.526,1.224,1.296,2.463,2.052,3.279c0.144,0.155,0.163,0.38,0.078,0.574c-0.084,0.194-0.295,0.319-0.506,0.319
	c-1.809,0-4.711-0.72-6.973-2.277c-0.654,0.091-1.32,0.151-2.004,0.151c-7.046,0-12.757-4.998-12.757-11.163
	S26.41,20.481,33.455,20.481z"/>
</svg>
