<?xml version="1.0" encoding="utf-8"?>
<!-- Generator: Adobe Illustrator 22.0.1, SVG Export Plug-In . SVG Version: 6.00 Build 0)  -->
<svg version="1.1" id="Layer_1" xmlns="http://www.w3.org/2000/svg" xmlns:xlink="http://www.w3.org/1999/xlink" x="0px" y="0px"
	 viewBox="0 0 64 64" style="enable-background:new 0 0 64 64;" xml:space="preserve">
<style type="text/css">
	.st0{fill:none;stroke:#E40076;stroke-width:3;stroke-miterlimit:10;}
	.st1{fill:#8BC53F;}
</style>
<circle class="st0" cx="32" cy="32" r="29"/>
<path class="st1" d="M42.244,9c-3.875,0-7.016,2.349-7.016,5.246c0,1.734,1.125,3.27,2.858,4.225l-1.034,3.066
	c-0.375-0.33-0.773-0.637-1.217-0.899c-1.181-0.698-2.47-1.047-3.866-1.047c-1.396,0-2.684,0.349-3.865,1.047
	c-1.182,0.698-2.121,1.638-2.819,2.819c-0.698,1.181-1.047,2.47-1.047,3.866c0,1.396,0.349,2.685,1.047,3.866
	c0.698,1.182,1.638,2.122,2.819,2.819c1.182,0.698,2.47,1.047,3.865,1.047c1.396,0,2.686-0.349,3.866-1.047
	c1.182-0.697,2.121-1.637,2.819-2.819c0.698-1.181,1.047-2.47,1.047-3.866c0-1.396-0.349-2.685-1.047-3.866
	c-0.281-0.476-0.613-0.902-0.972-1.3l4.118-2.677c0.147,0.007,0.295,0.012,0.445,0.012c3.875,0,7.016-2.349,7.016-5.246
	C49.261,11.349,46.12,9,42.244,9z M35.62,30.974c-1.002,1.002-2.219,1.503-3.651,1.503c-1.432,0-2.648-0.501-3.65-1.503
	c-1.003-1.002-1.504-2.219-1.504-3.651c0-1.432,0.501-2.649,1.504-3.651c1.002-1.002,2.219-1.504,3.65-1.504
	c1.433,0,2.649,0.501,3.651,1.504c1.003,1.002,1.504,2.219,1.504,3.651C37.124,28.755,36.623,29.972,35.62,30.974z M38.98,15.328
	c-0.525,0-0.951-0.425-0.951-0.95c0-0.526,0.426-0.951,0.951-0.951c0.525,0,0.951,0.425,0.951,0.951
	C39.931,14.902,39.505,15.328,38.98,15.328z M42.244,15.328c-0.525,0-0.951-0.425-0.951-0.95c0-0.526,0.426-0.951,0.951-0.951
	c0.525,0,0.951,0.425,0.951,0.951C43.195,14.902,42.769,15.328,42.244,15.328z M45.509,15.328c-0.525,0-0.951-0.425-0.951-0.95
	c0-0.526,0.426-0.951,0.951-0.951c0.525,0,0.951,0.425,0.951,0.951C46.46,14.902,46.034,15.328,45.509,15.328z"/>
<path class="st1" d="M40.399,36.881c-1.109-0.645-2.309-0.967-3.598-0.967c-0.465,0-1.074,0.125-1.825,0.376
	c-0.502,0.144-0.913,0.251-1.235,0.322c-0.537,0.107-1.128,0.161-1.772,0.161s-1.234-0.054-1.771-0.161
	c-0.322-0.071-0.734-0.179-1.234-0.322c-0.752-0.251-1.361-0.376-1.826-0.376c-1.289,0-2.488,0.322-3.598,0.967
	s-1.986,1.521-2.631,2.631c-0.645,1.11-0.967,2.31-0.967,3.598v1.396c0,0.716,0.25,1.324,0.752,1.825
	c0.501,0.501,1.109,0.752,1.825,0.752H41.42c0.716,0,1.324-0.251,1.825-0.752s0.752-1.109,0.752-1.825v-1.396
	c0-1.288-0.322-2.487-0.967-3.598C42.386,38.402,41.509,37.525,40.399,36.881z M41.42,44.506H22.519v-1.396
	c0-1.253,0.456-2.336,1.37-3.248c0.912-0.913,1.995-1.369,3.248-1.369c0.179,0,0.537,0.071,1.074,0.215
	c1.324,0.429,2.586,0.644,3.785,0.644s2.443-0.215,3.731-0.644c0.502-0.144,0.859-0.215,1.074-0.215
	c1.253,0,2.336,0.456,3.249,1.369c0.912,0.912,1.369,1.995,1.369,3.248V44.506z"/>
</svg>
