<?xml version="1.0" encoding="utf-8"?>
<!-- Generator: Adobe Illustrator 25.4.1, SVG Export Plug-In . SVG Version: 6.00 Build 0)  -->
<svg version="1.1" id="Layer_1" xmlns="http://www.w3.org/2000/svg" xmlns:xlink="http://www.w3.org/1999/xlink" x="0px" y="0px"
	 viewBox="0 0 42 42" style="enable-background:new 0 0 42 42;" xml:space="preserve">
<style type="text/css">
	.st0{fill:#FDD743;}
	.st1{fill:#F9BD2C;}
	.st2{fill:#32393F;}
	.st3{fill:#474F54;}
	.st4{fill:#575F64;}
</style>
<path class="st0" d="M20.942,29.359c-3.49,0.004-6.979,0.006-10.469,0.016c-0.228,0.001-0.296-0.073-0.292-0.296
	c0.013-0.584,0.013-1.168,0-1.751c-0.005-0.235,0.038-0.332,0.312-0.37c0.843-0.116,1.462-0.575,1.852-1.342
	c0.114-0.223,0.114-0.395-0.046-0.611c-1.454-1.964-2.195-4.178-2.1-6.616c0.162-4.122,2.09-7.21,5.674-9.239
	c1.563-0.884,3.271-1.282,5.069-1.276c0.146,0.15,0.124,0.344,0.125,0.526c0.004,2.825,0.003,5.651,0.001,8.476
	c0,0.172,0,3.337,0,3.534c0.002,2.781,0.002,5.562-0.001,8.342C21.068,28.961,21.1,29.182,20.942,29.359z"/>
<path class="st1" d="M20.943,17.404c0,0,0-6.353,0-9.53c2.42-0.026,4.592,0.721,6.502,2.182c2.314,1.77,3.714,4.12,4.15,7.001
	c0.818,5.406-2.633,10.592-7.944,11.984c-0.887,0.233-1.787,0.373-2.709,0.317c0.001-3.175,0.001-6.349,0.002-9.524
	C20.961,19.791,20.943,17.404,20.943,17.404z"/>
<path class="st2" d="M35.286,12.634c1.02,0.052,2.045-0.078,3.06,0.075c1.644,0.247,2.941,1.677,2.976,3.344
	c0.035,1.711,0.038,3.424,0,5.135c-0.041,1.846-1.599,3.359-3.445,3.398c-0.862,0.018-5.132,0.166-5.163-0.108
	c0.455-1.112,0.924-2.218,1.137-3.414c0.47-2.637,0.262-5.191-0.87-7.644c-0.094-0.203-0.167-0.415-0.251-0.623
	c-0.075-0.137,0.017-0.228,0.12-0.234C33.464,12.562,34.395,12.634,35.286,12.634z"/>
<path class="st3" d="M6.714,12.634c-1.02,0.052-2.045-0.078-3.06,0.075c-1.644,0.247-2.941,1.677-2.976,3.344
	c-0.035,1.711-0.038,3.424,0,5.135c0.041,1.846,1.599,3.359,3.445,3.398c0.862,0.018,5.132,0.166,5.163-0.108
	c-0.455-1.112-0.924-2.218-1.137-3.414c-0.47-2.637-0.262-5.191,0.87-7.644c0.094-0.203,0.167-0.415,0.251-0.623
	c0.075-0.137-0.017-0.228-0.12-0.234C8.536,12.562,7.605,12.634,6.714,12.634z"/>
<path class="st3" d="M35.286,12.634c-0.737,0.001-1.474,0-2.211,0.005c-0.133,0.001-0.306-0.06-0.344,0.158
	c-1.735-3.31-4.357-5.571-7.923-6.724c-1.258-0.407-2.558-0.528-3.866-0.613c-0.089-0.09-0.117-0.204-0.12-0.324
	c-0.015-0.576-0.015-1.152,0-1.728c0.003-0.12,0.031-0.234,0.12-0.324c2.652-0.058,5.128,0.607,7.436,1.884
	C31.555,6.726,33.863,9.285,35.286,12.634z"/>
<path class="st4" d="M20.941,3.083c0,0.792,0,1.584,0,2.376c-2.069,0.05-4.049,0.469-5.905,1.413
	C12.612,8.105,10.751,9.92,9.438,12.3c-0.063,0.115-0.136,0.224-0.204,0.336c-0.86-0.004-1.721-0.009-2.581-0.013
	c1.135-2.755,2.927-4.992,5.357-6.704C14.683,4.037,17.66,3.072,20.941,3.083z"/>
<path class="st3" d="M32.714,24.477c0.1,0.155,0.258,0.106,0.397,0.107c0.726,0.005,1.452,0.008,2.179,0.009
	c-0.669,1.495-1.483,2.898-2.564,4.138c-2.201,2.524-4.914,4.206-8.188,4.958c-0.026-0.046-0.016,0.023-0.027-0.027
	c-0.177-0.793-0.202-1.586,0.014-2.378c1.486-0.467,2.885-1.112,4.15-2.034C30.409,27.987,31.733,26.378,32.714,24.477z"/>
<path class="st2" d="M24.524,31.284c0.004,0.802,0.008,1.603,0.013,2.405c-0.062,0.819,0.078,1.646-0.093,2.461
	c-0.342,1.626-1.851,2.819-3.503,2.769c-0.142-0.151-0.128-0.343-0.129-0.527c-0.003-2.031-0.004-4.062,0.001-6.092
	c0-0.183-0.022-0.377,0.13-0.524C22.155,31.747,23.344,31.548,24.524,31.284z"/>
<path class="st3" d="M20.943,31.775c-0.001,2.381-0.001,4.762-0.002,7.144c-1.813,0.045-3.389-1.378-3.574-3.226
	c-0.183-1.827,1.146-3.571,2.944-3.859C20.52,31.801,20.732,31.794,20.943,31.775z"/>
<path class="st4" d="M17.355,18.619c0,0.305-0.009,0.611,0.003,0.916c0.008,0.199-0.046,0.285-0.264,0.281
	c-0.624-0.012-1.248-0.013-1.872,0c-0.223,0.005-0.263-0.092-0.26-0.285c0.009-0.611,0.013-1.222-0.002-1.832
	c-0.006-0.241,0.095-0.285,0.306-0.281c0.597,0.011,1.195,0.016,1.792-0.002c0.262-0.008,0.312,0.1,0.301,0.327
	C17.344,18.035,17.355,18.327,17.355,18.619z"/>
<path class="st4" d="M20.944,19.815c0,0-0.632-0.005-0.947,0c-0.184,0.003-0.257-0.055-0.254-0.247c0.009-0.633,0.008-1.266,0-1.899
	c-0.002-0.189,0.065-0.254,0.252-0.25c0.316,0.006,0.948-0.015,0.948-0.015L20.944,19.815z"/>
<path class="st3" d="M20.936,19.815c0,0,0.632-0.005,0.947,0c0.184,0.003,0.257-0.055,0.254-0.247c-0.009-0.633-0.008-1.266,0-1.899
	c0.002-0.189-0.065-0.254-0.252-0.25c-0.316,0.006-0.948-0.015-0.948-0.015L20.936,19.815z"/>
<path class="st3" d="M26.967,17.694c0-0.002,0-0.005,0-0.006c0.004-0.21-0.069-0.279-0.274-0.269c-0.002,0-1.896,0-1.897,0
	c-0.206-0.009-0.278,0.059-0.274,0.269c0,0.002,0,0.005,0,0.006c0,0.036,0.012,1.246,0,1.858c-0.004,0.217,0.082,0.271,0.279,0.263
	l0,0h0h0.004h0h1.879h0c0,0,0.003,0,0.004,0h0l0,0c0.197,0.008,0.283-0.046,0.279-0.263C26.956,18.94,26.967,17.73,26.967,17.694z"
	/>
</svg>
