<?xml version="1.0" encoding="utf-8"?>
<!-- Generator: Adobe Illustrator 22.0.0, SVG Export Plug-In . SVG Version: 6.00 Build 0)  -->
<svg version="1.1" id="Layer_1" xmlns="http://www.w3.org/2000/svg" xmlns:xlink="http://www.w3.org/1999/xlink" x="0px" y="0px"
	 viewBox="0 0 80 18" style="enable-background:new 0 0 80 18;" xml:space="preserve">
<style type="text/css">
	.st0{fill:#8CC63E;}
</style>
<path class="st0" d="M8.049,3.185L6.455,6.417l-3.566,0.52C2.249,7.03,1.993,7.818,2.457,8.27l2.58,2.514l-0.61,3.552
	c-0.11,0.642,0.566,1.123,1.133,0.823l3.191-1.677l3.191,1.677c0.566,0.298,1.243-0.181,1.133-0.823l-0.61-3.552l2.58-2.514
	c0.464-0.452,0.207-1.24-0.432-1.333l-3.566-0.52L9.451,3.185C9.165,2.609,8.337,2.601,8.049,3.185L8.049,3.185z"/>
<path class="st0" d="M23.674,3.185L22.08,6.417l-3.566,0.52c-0.64,0.093-0.896,0.881-0.432,1.333l2.58,2.514l-0.61,3.552
	c-0.11,0.642,0.566,1.123,1.133,0.823l3.191-1.677l3.191,1.677c0.566,0.298,1.243-0.181,1.133-0.823l-0.61-3.552l2.58-2.514
	c0.464-0.452,0.207-1.24-0.432-1.333l-3.566-0.52l-1.594-3.232C24.79,2.609,23.962,2.601,23.674,3.185L23.674,3.185z"/>
<path class="st0" d="M39.299,3.185l-1.594,3.232l-3.566,0.52c-0.64,0.093-0.896,0.881-0.432,1.333l2.58,2.514l-0.61,3.552
	c-0.11,0.642,0.566,1.123,1.133,0.823L40,13.481l3.191,1.677c0.566,0.298,1.243-0.181,1.133-0.823l-0.61-3.552l2.58-2.514
	c0.464-0.452,0.207-1.24-0.432-1.333l-3.566-0.52l-1.594-3.232C40.415,2.609,39.587,2.601,39.299,3.185L39.299,3.185z"/>
<path class="st0" d="M54.924,3.185L53.33,6.417l-3.566,0.52c-0.64,0.093-0.896,0.881-0.432,1.333l2.58,2.514l-0.61,3.552
	c-0.11,0.642,0.566,1.123,1.133,0.823l3.191-1.677l3.191,1.677c0.566,0.298,1.243-0.181,1.133-0.823l-0.61-3.552l2.58-2.514
	c0.464-0.452,0.207-1.24-0.432-1.333l-3.566-0.52l-1.594-3.232C56.04,2.609,55.212,2.601,54.924,3.185L54.924,3.185z"/>
<path class="st0" d="M70.549,3.185l-1.594,3.232l-3.566,0.52c-0.64,0.093-0.896,0.881-0.432,1.333l2.58,2.514l-0.61,3.552
	c-0.11,0.642,0.566,1.123,1.133,0.823l3.191-1.677l3.191,1.677c0.566,0.298,1.243-0.181,1.133-0.823l-0.61-3.552l2.58-2.514
	c0.464-0.452,0.207-1.24-0.432-1.333l-3.566-0.52l-1.594-3.232C71.665,2.609,70.837,2.601,70.549,3.185L70.549,3.185z"/>
</svg>
