<?xml version="1.0" encoding="utf-8"?>
<!-- Generator: Adobe Illustrator 22.0.0, SVG Export Plug-In . SVG Version: 6.00 Build 0)  -->
<svg version="1.1" id="Layer_1" xmlns="http://www.w3.org/2000/svg" xmlns:xlink="http://www.w3.org/1999/xlink" x="0px" y="0px"
	 viewBox="0 0 150 150" style="enable-background:new 0 0 150 150;" xml:space="preserve">
<style type="text/css">
	.st0{fill:#E90880;}
	.st1{fill:#8AC440;}
</style>
<path class="st0" d="M6,87.003V62.351l11.422,15.79l11.421-15.79v24.652h-4.026V74.677l-7.395,10.204l-7.365-10.204v12.326L6,87.003
	z M37.517,87.003V75.551l-7.396-12.576h5.024l4.4,8.644l4.431-8.644h4.993l-7.396,12.576v11.452L37.517,87.003z"/>
<path id="XMLID_118_" class="st1" d="M52.18,66.968h12.44L51.413,84.916v2.192h20.226v-3.849H58.047l12.884-18.024l0.018-0.005
	v-0.02l0.005-0.007l-0.005,0.001v-2.213H52.18V66.968z"/>
<path id="XMLID_117_" class="st1" d="M104.467,67.437h6.957c2.553-0.028,4.671,1.093,4.476,4.559v15.112h4.523V71.414
	c0.035-6.143-4.057-8.419-8.485-8.423H99.724v24.117h4.742V67.437H104.467z"/>
<path id="XMLID_116_" class="st1" d="M122.278,75.105c0,6.907,6.24,12.54,13.891,12.54c2.886,0,5.57-0.802,7.796-2.171L144,85.453
	v-9.85h-4.557v7.455c-0.915,0.268-1.889,0.414-2.9,0.414c-5.194,0-9.431-3.824-9.431-8.513s4.237-8.513,9.431-8.513
	c2.12,0,4.08,0.637,5.658,1.71L144,64.758c-2.232-1.382-4.93-2.193-7.831-2.193C128.518,62.566,122.278,68.198,122.278,75.105z"/>
<path id="XMLID_115_" class="st1" d="M97.593,75.13c0-6.919-5.645-12.565-12.564-12.565c-6.919,0-12.564,5.645-12.564,12.565
	c0,6.571,5.092,11.989,11.53,12.519v-4.43c-4.018-0.509-7.127-3.932-7.127-8.089c0.002-4.507,3.658-8.159,8.165-8.157
	c4.504,0.002,8.154,3.653,8.157,8.157c0,4.156-3.109,7.579-7.127,8.089v4.43C92.501,87.12,97.593,81.702,97.593,75.13z"/>
</svg>
