<?xml version="1.0" encoding="utf-8"?>
<!-- Generator: Adobe Illustrator 23.0.1, SVG Export Plug-In . SVG Version: 6.00 Build 0)  -->
<svg version="1.1" id="Layer_1" xmlns="http://www.w3.org/2000/svg" xmlns:xlink="http://www.w3.org/1999/xlink" x="0px" y="0px"
	 width="72px" height="71px" viewBox="0 0 72 71" style="enable-background:new 0 0 72 71;" xml:space="preserve">
<style type="text/css">
	.st0{fill:#E1006E;}
	.st1{fill:#FFFFFF;}
	.st2{fill:#FFB125;}
	.st3{fill:#82BB25;}
</style>
<path class="st0" d="M46.2087,8.4388H25.8272c-2.6485,0-4.7956,2.1471-4.7956,4.7958v37.4837v0.9416v6.3055
	c0,2.5382,2.0577,4.5959,4.5959,4.5959h20.7812c2.5382,0,4.5959-2.0577,4.5959-4.5959v-6.8633v-0.3838V13.2346
	C51.0045,10.5859,48.8574,8.4388,46.2087,8.4388z"/>
<path class="st1" d="M48.9598,50.7183v2.0383h0.0046v0.4185c0.0007,0,0.0012-0.0002,0.0017-0.0002v4.7904
	c0,1.4101-1.1474,2.5575-2.5575,2.5575H25.6275c-1.4104,0-2.5575-1.1474-2.5575-2.5575v-4.7865h0.0017v-0.4221h0.0059v-2.0383
	h-0.0076V13.2346c0-1.5204,1.2368-2.7575,2.7572-2.7575h3.549c-0.023,0.056-0.0364,0.1168-0.0364,0.1811v0.639
	c0,0.2647,0.2146,0.4793,0.4793,0.4793h12.3978c0.265,0,0.4793-0.2146,0.4793-0.4793v-0.639c0-0.0643-0.0134-0.1252-0.0364-0.1811
	h3.549c1.5204,0,2.7575,1.2371,2.7575,2.7575v37.4837H48.9598z"/>
<circle class="st0" cx="36.0181" cy="55.6379" r="1.7255"/>
<path class="st2" d="M46.7771,30.39l-7.369,6.6503c-0.5549,0.5008-1.3571,0.5772-1.9963,0.1893l-2.1314-2.5069l0.7382-1.2164
	l2.1314,2.5069c0.0973,0.0591,0.2199,0.0477,0.305-0.0291l7.369-6.6503L46.7771,30.39z"/>
<path class="st3" d="M41.3347,37.3626l-1.4378,1.284l-0.1097,3.9298c-0.0039,0.1139-0.0807,0.21-0.1909,0.2388l-7.4719,0.9342
	V41.562v-1.2505V26.867l7.5914,2.3202c0.1083,0.0332,0.1811,0.132,0.1811,0.2452v3.293l1.4229-1.2838v-2.0093
	c0-0.7433-0.4781-1.3886-1.1887-1.6055l-7.8845-2.4096c-0.3605-0.1105-0.7573-0.0425-1.0609,0.1819
	c-0.3029,0.2244-0.4842,0.5835-0.4842,0.9609v13.7515v1.2505v4.0728h1.4229v-0.0068l7.8329-1.4363
	c0.7233-0.1899,1.3517-0.8049,1.3774-1.5512V37.3626z"/>
</svg>
