<?xml version="1.0" encoding="utf-8"?>
<!-- Generator: Adobe Illustrator 23.0.1, SVG Export Plug-In . SVG Version: 6.00 Build 0)  -->
<svg version="1.1" id="Layer_1" xmlns="http://www.w3.org/2000/svg" xmlns:xlink="http://www.w3.org/1999/xlink" x="0px" y="0px"
	 width="72px" height="72px" viewBox="0 0 72 72" style="enable-background:new 0 0 72 72;" xml:space="preserve">
<style type="text/css">
	.st0{fill:#515050;}
	.st1{fill:#FFFFFF;}
</style>
<path class="st0" d="M45.94,8.9714H25.5831c-2.6453,0-4.7898,2.1445-4.7898,4.79V51.2v0.9404v6.2979
	c0,2.5352,2.0552,4.5903,4.5903,4.5903h20.7561c2.5352,0,4.5903-2.0552,4.5903-4.5903v-6.855V51.2V13.7615
	C50.7301,11.116,48.5855,8.9714,45.94,8.9714z M48.6878,51.2v2.0359h0.0046v0.418c0.0007,0,0.0012-0.0002,0.0017-0.0002v4.7847
	c0,1.4084-1.146,2.5544-2.5544,2.5544H25.3836c-1.4087,0-2.5544-1.146-2.5544-2.5544v-4.7808h0.0017v-0.4216h0.0059V51.2h-0.0076
	V13.7615c0-1.5186,1.2354-2.7542,2.7539-2.7542h3.5447c-0.0229,0.0559-0.0364,0.1167-0.0364,0.1809v0.6382
	c0,0.2644,0.2144,0.4788,0.4788,0.4788H41.953c0.2646,0,0.4788-0.2144,0.4788-0.4788v-0.6382c0-0.0642-0.0134-0.125-0.0364-0.1809
	H45.94c1.5186,0,2.7542,1.2356,2.7542,2.7542V51.2H48.6878z"/>
<circle class="st0" cx="35.7617" cy="56.1136" r="1.7234"/>
<path class="st0" d="M32.3819,42.5759l-5.8281-2.2914V38.836c0-1.3119-1.0673-2.379-2.3791-2.379H11.1069
	c-1.3118,0-2.3791,1.0671-2.3791,2.379v8.8797c0,1.3117,1.0673,2.379,2.3791,2.379h13.0678c1.3118,0,2.3791-1.0673,2.3791-2.379
	v-1.5193l5.8208-2.2179c0.2902-0.1106,0.4825-0.3881,0.4842-0.6987C32.8604,42.9692,32.6709,42.6895,32.3819,42.5759z"/>
<path class="st1" d="M25.5341,44.9755c-0.2915,0.1111-0.4842,0.3906-0.4842,0.7028v2.0374c0,0.4824-0.3925,0.8751-0.8752,0.8751
	H11.1069c-0.4826,0-0.8752-0.3926-0.8752-0.8751V38.836c0-0.4824,0.3925-0.8751,0.8752-0.8751h13.0678
	c0.4826,0,0.8752,0.3926,0.8752,0.8751v1.961c0,0.3091,0.1892,0.5869,0.4768,0.6999l4.497,1.768L25.5341,44.9755z"/>
<path class="st0" d="M20.4799,41.9557h-6.3726c-0.4153,0-0.752-0.3367-0.752-0.752s0.3367-0.752,0.752-0.752h6.3726
	c0.4153,0,0.752,0.3367,0.752,0.752S20.8952,41.9557,20.4799,41.9557z"/>
<path class="st0" d="M20.4799,44.9051h-6.3726c-0.4153,0-0.752-0.3367-0.752-0.752s0.3367-0.752,0.752-0.752h6.3726
	c0.4153,0,0.752,0.3367,0.752,0.752S20.8952,44.9051,20.4799,44.9051z"/>
<path class="st0" d="M63.4474,17.2672v-1.4486c0-1.3119-1.0673-2.379-2.3791-2.379H48.0005c-1.3118,0-2.3791,1.0671-2.3791,2.379
	v8.8797c0,1.3117,1.0673,2.379,2.3791,2.379h13.0678c1.3118,0,2.3791-1.0673,2.3791-2.379v-1.5193V17.2672z"/>
<path class="st1" d="M61.9435,22.661v2.0374c0,0.4824-0.3925,0.8751-0.8751,0.8751H48.0005c-0.4826,0-0.8751-0.3926-0.8751-0.8751
	v-8.8797c0-0.4824,0.3925-0.8751,0.8751-0.8751h13.0678c0.4826,0,0.8751,0.3926,0.8751,0.8751v1.961
	C61.9435,18.0887,61.9435,22.3488,61.9435,22.661z"/>
<polygon class="st0" points="52.8961,20.2585 52.8961,17.2121 55.5344,18.7353 58.1727,20.2585 55.5344,21.7818 52.8961,23.305 "/>
<path id="XMLID_95_" class="st0" d="M26.8922,30.7211c1.5699,5.7646,6.6177,9.9961,12.5602,10.5289
	c0.1356,0.0122,0.2707,0.0185,0.4039,0.0185c0.5664,0,1.1095-0.1104,1.5896-0.3251c0.1446-0.0643,0.2665-0.1273,0.3641-0.188
	c0.2629-0.1511,0.4967-0.34,0.6954-0.5607l0.5449-0.6027c0.1083-0.1193,0.21-0.257,0.31-0.42
	c0.1642-0.2668,0.2814-0.5464,0.348-0.8308c0.2403-1.0149-0.0886-2.078-0.8591-2.7749V35.566l-0.9203-0.8316
	c-0.37-0.3349-0.8257-0.5675-1.3177-0.6722c-0.2011-0.0431-0.401-0.0649-0.5937-0.0649c-0.8043,0-1.5747,0.3421-2.1143,0.9382
	l-0.5455,0.6035c-0.2172,0.24-0.3897,0.5104-0.5134,0.8064c-2.1999-0.9185-4.0037-2.5696-5.1131-4.6812
	c0.4069-0.16,0.7733-0.4129,1.069-0.7401l0.545-0.6026c0.511-0.5646,0.771-1.2943,0.7329-2.0545
	c-0.0036-0.0741-0.0125-0.1472-0.0214-0.2195c-0.085-0.6743-0.4099-1.2966-0.9138-1.7522l-0.9197-0.8317
	c-0.5247-0.475-1.2035-0.7367-1.9108-0.7367c-0.1523,0-0.3112,0.0149-0.4848,0.0452c-0.5099,0.0883-0.987,0.3135-1.3784,0.6505
	c-0.1,0.086-0.1797,0.163-0.2517,0.2427l-0.5444,0.6021c-0.0749,0.0824-0.1469,0.1725-0.2141,0.268
	c-0.5985,0.5277-1.072,1.6931-0.7936,3.1313C26.7113,30.0091,26.7917,30.3541,26.8922,30.7211z M27.9041,27.0405
	c0.0113-0.0095,0.0214-0.0196,0.0309-0.0303l0.0256-0.028c0.0101-0.0113,0.0196-0.0232,0.0286-0.036
	c0.0541-0.0782,0.1112-0.1511,0.1725-0.2177l0.5449-0.6035c0.0524-0.0577,0.1125-0.1154,0.1904-0.1823
	c0.2975-0.2564,0.6597-0.4275,1.0476-0.4947c0.135-0.0232,0.2552-0.0348,0.3677-0.0348c0.5372,0,1.0517,0.1984,1.4497,0.5583
	l0.9203,0.8329c0.3879,0.3507,0.6276,0.8103,0.6931,1.3296c0.0071,0.0551,0.0143,0.1104,0.0172,0.1669
	c0.0291,0.5773-0.1689,1.1312-0.5562,1.5601l-0.5455,0.6027c-0.2647,0.2926-0.6032,0.5071-0.9798,0.6204l-0.1672,0.0509
	c-0.0964,0.0294-0.1755,0.1-0.2147,0.1927c-0.0399,0.0931-0.0369,0.1987,0.0083,0.2891l0.0774,0.1538
	c1.2046,2.4186,3.2511,4.297,5.7628,5.2883l0.1452,0.0577c0.0875,0.0336,0.185,0.0301,0.2695-0.0098
	c0.085-0.0398,0.1493-0.1124,0.1796-0.2013l0.0488-0.1455c0.0952-0.2829,0.2451-0.5387,0.4462-0.7606l0.545-0.6036
	c0.4099-0.4527,0.9952-0.7121,1.6056-0.7121c0.1446,0,0.2962,0.0166,0.4504,0.0493c0.3736,0.0797,0.7198,0.2562,1.0006,0.5101
	l0.9203,0.832c0.5848,0.5288,0.834,1.3361,0.6514,2.1083c-0.0499,0.213-0.1392,0.4248-0.2653,0.6288
	c-0.0785,0.1288-0.1529,0.2303-0.2332,0.3192l-0.5456,0.6032c-0.1511,0.1675-0.329,0.3108-0.5372,0.431
	c-0.0809,0.0497-0.1761,0.0991-0.2927,0.1508c-0.4872,0.2177-1.0583,0.3043-1.6526,0.2498
	c-5.658-0.5074-10.4643-4.5364-11.9593-10.0259c-0.0958-0.3501-0.1725-0.6785-0.235-1.0039
	C27.076,28.28,27.5358,27.3552,27.9041,27.0405z"/>
<path class="st0" d="M36.1906,22.7058c-0.4165,0-0.7556,0.3389-0.7556,0.7559c0,0.4165,0.3391,0.7559,0.7556,0.7559
	c4.0024,0,7.2577,3.2559,7.2577,7.2576c0,0.4167,0.3391,0.7559,0.7561,0.7559c0.4164,0,0.7555-0.3391,0.7555-0.7559
	C44.9599,26.6394,41.0258,22.7058,36.1906,22.7058z"/>
<path class="st0" d="M36.0971,25.5654c-0.417,0-0.7561,0.3391-0.7561,0.7559c0,0.417,0.3391,0.7561,0.7561,0.7561
	c2.4766,0,4.4915,2.0149,4.4915,4.4917c0,0.4167,0.3391,0.7559,0.7561,0.7559c0.4165,0,0.7556-0.3391,0.7556-0.7559
	C42.1003,28.2588,39.4071,25.5654,36.0971,25.5654z"/>
</svg>
