<?xml version="1.0" encoding="utf-8"?>
<!-- Generator: Adobe Illustrator 23.0.1, SVG Export Plug-In . SVG Version: 6.00 Build 0)  -->
<svg version="1.1" id="Layer_1" xmlns="http://www.w3.org/2000/svg" xmlns:xlink="http://www.w3.org/1999/xlink" x="0px" y="0px"
	 width="72px" height="71px" viewBox="0 0 72 71" style="enable-background:new 0 0 72 71;" xml:space="preserve">
<style type="text/css">
	.st0{fill:#515050;}
</style>
<path class="st0" d="M46.1783,8.4714H25.8214c-2.6453,0-4.7898,2.1445-4.7898,4.79V50.7v0.9404v6.2979
	c0,2.5352,2.0552,4.5903,4.5903,4.5903H46.378c2.5352,0,4.5903-2.0552,4.5903-4.5903v-6.855V50.7V13.2615
	C50.9684,10.616,48.8239,8.4714,46.1783,8.4714z M48.9261,50.7v2.0359h0.0046v0.418c0.0007,0,0.0012-0.0002,0.0017-0.0002v4.7847
	c0,1.4084-1.146,2.5544-2.5544,2.5544H25.6219c-1.4087,0-2.5544-1.146-2.5544-2.5544v-4.7808h0.0017V52.736h0.0059V50.7h-0.0076
	V13.2615c0-1.5186,1.2354-2.7542,2.7539-2.7542h3.5447c-0.0229,0.0559-0.0364,0.1167-0.0364,0.1809v0.6382
	c0,0.2644,0.2144,0.4788,0.4788,0.4788h12.3828c0.2646,0,0.4788-0.2144,0.4788-0.4788v-0.6382c0-0.0642-0.0134-0.125-0.0364-0.1809
	h3.5447c1.5186,0,2.7542,1.2356,2.7542,2.7542V50.7H48.9261z"/>
<circle class="st0" cx="36" cy="55.6136" r="1.7234"/>
<g>
	<path class="st0" d="M46.7461,30.3961l-7.3601,6.6422c-0.5542,0.5002-1.3555,0.5765-1.9939,0.1891l-2.1289-2.5039l0.7373-1.2149
		l2.1289,2.5039c0.0972,0.059,0.2196,0.0476,0.3046-0.0291l7.3601-6.6422L46.7461,30.3961z"/>
</g>
<path class="st0" d="M41.3102,37.3604l-1.436,1.2825l-0.1096,3.925c-0.0039,0.1138-0.0806,0.2097-0.1907,0.2385l-7.4629,0.9331
	v-2.1848v-1.249V26.8774l7.5823,2.3174c0.1082,0.0332,0.1809,0.1318,0.1809,0.2449v3.2891l1.4211-1.2822v-2.0068
	c0-0.7424-0.4775-1.387-1.1873-1.6035l-7.875-2.4067c-0.3601-0.1104-0.7563-0.0425-1.0596,0.1816
	c-0.3025,0.2241-0.4836,0.5828-0.4836,0.9597v13.7349v1.249v4.0679h1.4211v-0.0068l7.8235-1.4346
	c0.7224-0.1897,1.3501-0.804,1.3757-1.5493v-5.2716H41.3102z"/>
</svg>
