<?xml version="1.0" encoding="utf-8"?>
<!-- Generator: Adobe Illustrator 23.0.1, SVG Export Plug-In . SVG Version: 6.00 Build 0)  -->
<svg version="1.1" id="Layer_1" xmlns="http://www.w3.org/2000/svg" xmlns:xlink="http://www.w3.org/1999/xlink" x="0px" y="0px"
	 width="72px" height="72px" viewBox="0 0 72 72" style="enable-background:new 0 0 72 72;" xml:space="preserve">
<style type="text/css">
	.st0{fill:#E1006E;}
	.st1{fill:#FFFFFF;}
	.st2{fill:#FFB125;}
	.st3{fill:#82BB25;}
</style>
<path class="st0" d="M45.94,8.9714H25.5831c-2.6453,0-4.7898,2.1445-4.7898,4.79v37.4385v0.9404v6.2979
	c0,2.5352,2.0552,4.5903,4.5903,4.5903h20.7561c2.5352,0,4.5903-2.0552,4.5903-4.5903v-6.855v-0.3833V13.7614
	C50.7301,11.1159,48.5855,8.9714,45.94,8.9714z"/>
<path class="st1" d="M48.6878,51.1999v2.0359h0.0046v0.418c0.0007,0,0.0012-0.0002,0.0017-0.0002v4.7847
	c0,1.4084-1.146,2.5544-2.5544,2.5544H25.3836c-1.4087,0-2.5544-1.146-2.5544-2.5544v-4.7808h0.0017v-0.4216h0.0059v-2.0359h-0.0076
	V13.7614c0-1.5186,1.2354-2.7542,2.7539-2.7542h3.5447c-0.0229,0.0559-0.0364,0.1167-0.0364,0.1809v0.6382
	c0,0.2644,0.2144,0.4788,0.4788,0.4788H41.953c0.2646,0,0.4788-0.2144,0.4788-0.4788v-0.6382c0-0.0642-0.0134-0.125-0.0364-0.1809
	H45.94c1.5186,0,2.7542,1.2356,2.7542,2.7542v37.4385H48.6878z"/>
<circle class="st0" cx="35.7617" cy="56.1136" r="1.7234"/>
<path class="st2" d="M62.4,34.4766c-0.2811,0.1349-0.6202,0.1394-0.9171-0.0175c-0.497-0.2627-0.687-0.8786-0.4242-1.3757
	c0.7392-1.3983,0.7765-3.0192,0.1026-4.4473c-0.6738-1.4282-1.9489-2.4298-3.498-2.7482c-0.5507-0.1132-0.9054-0.6514-0.7922-1.2021
	c0.1131-0.5507,0.6514-0.9052,1.202-0.7922c2.1828,0.4487,3.9795,1.8605,4.9295,3.8737c0.9498,2.013,0.8973,4.2975-0.144,6.2675
	C62.7529,34.2351,62.5896,34.3856,62.4,34.4766z"/>
<path class="st2" d="M68.116,35.359c-0.2539,0.1219-0.5569,0.1385-0.8367,0.0204c-0.5179-0.2187-0.7606-0.8158-0.542-1.3337
	c1.0784-2.5549,1.0187-5.4573-0.1639-7.9634c-1.183-2.5073-3.3868-4.3992-6.0463-5.1903c-0.5389-0.1603-0.8457-0.7272-0.6854-1.266
	c0.1604-0.5389,0.7271-0.8456,1.266-0.6854c3.2138,0.9562,5.8771,3.2426,7.3071,6.2729c1.4291,3.0288,1.5014,6.5366,0.1982,9.6239
	C68.5125,35.0755,68.3319,35.2554,68.116,35.359z"/>
<circle class="st1" cx="46.8408" cy="33.3366" r="10.8888"/>
<path class="st3" d="M58.4558,33.3365c0-6.4042-5.2104-11.6142-11.6151-11.6145h-0.0001l0,0h-0.0001
	c-6.4043,0-11.6148,5.2103-11.6148,11.6145c0,6.4045,5.2105,11.6149,11.6148,11.6149h0.0001l0,0h0.0001
	C53.2454,44.9513,58.4558,39.741,58.4558,33.3365z M55.077,39.2669c-0.5548-0.2227-1.444-0.5308-2.5849-0.8099
	c0.3641-1.1391,0.6219-2.374,0.735-3.6686h3.6593C56.6457,36.4417,56.0143,37.9688,55.077,39.2669z M43.1498,39.5361
	c0.8893-0.1482,1.883-0.2603,2.965-0.296v4.0522C45.1684,42.8026,44.0202,41.4561,43.1498,39.5361z M42.6088,28.5171
	c1.0346,0.1848,2.2086,0.3266,3.5061,0.3664v4.4533h-4.279C41.8358,31.5592,42.1405,29.9298,42.6088,28.5171z M50.5325,27.1387
	c-0.8886,0.1475-1.8821,0.259-2.9661,0.2944V23.381C48.5132,23.8707,49.6618,25.2178,50.5325,27.1387z M51.8461,33.3368h-4.2797
	v-4.4533c1.2977-0.0395,2.4718-0.1813,3.5066-0.3664C51.5414,29.9298,51.8461,31.5592,51.8461,33.3368z M46.1148,23.381v4.0522
	c-1.0819-0.0357-2.0756-0.1478-2.965-0.2963C44.0203,25.2171,45.1684,23.8707,46.1148,23.381z M46.1148,34.7884v3.002
	c-1.2975,0.0398-2.4714,0.1813-3.506,0.3664c-0.3373-1.0177-0.5835-2.1507-0.6975-3.3684H46.1148z M47.5664,43.2923v-4.0522
	c1.0821,0.0357,2.0759,0.1478,2.9654,0.296C49.6613,41.4561,48.513,42.8026,47.5664,43.2923z M47.5664,37.7904v-3.002h4.2041
	c-0.114,1.2178-0.3602,2.3508-0.6976,3.3684C50.0382,37.9717,48.8641,37.8302,47.5664,37.7904z M55.077,27.4064
	c1.2068,1.6711,1.9266,3.716,1.9266,5.9301v0.0003h-3.7059c0-1.8212-0.3072-3.5609-0.8056-5.1199
	C53.6331,27.9375,54.5222,27.6291,55.077,27.4064z M51.9895,26.8437c-0.513-1.2092-1.1422-2.2647-1.8289-3.0966
	c1.4982,0.5178,2.8407,1.3704,3.929,2.4795C53.5698,26.4151,52.8534,26.6388,51.9895,26.8437z M43.5212,23.7467
	c-0.6862,0.8313-1.315,1.8862-1.8278,3.0947c-0.8628-0.2049-1.5795-0.4285-2.1001-0.6165
	C40.6814,25.1161,42.0235,24.2642,43.5212,23.7467z M36.6779,33.3365c0-2.2144,0.7198-4.2593,1.9266-5.9301
	c0.5547,0.2227,1.4441,0.5311,2.5852,0.8102c-0.4984,1.5593-0.8055,3.299-0.8055,5.1202h-3.7062V33.3365z M38.6045,39.2672
	c-0.9374-1.2984-1.5686-2.8255-1.8093-4.4788h3.6596c0.113,1.2945,0.3709,2.5295,0.7349,3.6686
	C40.0486,38.7361,39.1593,39.0445,38.6045,39.2672z M41.6933,39.8318c0.5128,1.2082,1.1416,2.2631,1.8277,3.0944
	c-1.4977-0.5174-2.8398-1.3694-3.9279-2.4779C40.1137,40.26,40.8304,40.0367,41.6933,39.8318z M50.1606,42.9262
	c0.6861-0.8313,1.315-1.8862,1.8278-3.0944c0.8627,0.2049,1.5792,0.4282,2.0998,0.6165
	C53.0003,41.5568,51.6582,42.4088,50.1606,42.9262z"/>
</svg>
