<?xml version="1.0" encoding="utf-8"?>
<!-- Generator: Adobe Illustrator 23.0.1, SVG Export Plug-In . SVG Version: 6.00 Build 0)  -->
<svg version="1.1" id="Layer_1" xmlns="http://www.w3.org/2000/svg" xmlns:xlink="http://www.w3.org/1999/xlink" x="0px" y="0px"
	 width="72px" height="72px" viewBox="0 0 72 72" style="enable-background:new 0 0 72 72;" xml:space="preserve">
<style type="text/css">
	.st0{fill:#515050;}
	.st1{fill:#FFFFFF;}
	.st2{fill:#FFFFFF;stroke:#515050;stroke-width:1.4518;stroke-miterlimit:10;}
</style>
<path class="st0" d="M45.94,8.9714H25.5831c-2.6453,0-4.7898,2.1445-4.7898,4.79V51.2v0.9404v6.2979
	c0,2.5352,2.0552,4.5903,4.5903,4.5903h20.7561c2.5352,0,4.5903-2.0552,4.5903-4.5903v-6.855V51.2V13.7615
	C50.7301,11.116,48.5855,8.9714,45.94,8.9714z M48.6878,51.2v2.0359h0.0046v0.418c0.0007,0,0.0012-0.0002,0.0017-0.0002v4.7847
	c0,1.4084-1.146,2.5544-2.5544,2.5544H25.3836c-1.4087,0-2.5544-1.146-2.5544-2.5544v-4.7808h0.0017v-0.4216h0.0059V51.2h-0.0076
	V13.7615c0-1.5186,1.2354-2.7542,2.7539-2.7542h3.5447c-0.0229,0.0559-0.0364,0.1167-0.0364,0.1809v0.6382
	c0,0.2644,0.2144,0.4788,0.4788,0.4788H41.953c0.2646,0,0.4788-0.2144,0.4788-0.4788v-0.6382c0-0.0642-0.0134-0.125-0.0364-0.1809
	H45.94c1.5186,0,2.7542,1.2356,2.7542,2.7542V51.2H48.6878z"/>
<circle class="st0" cx="35.7617" cy="56.1136" r="1.7234"/>
<path class="st0" d="M62.4,34.4766c-0.2811,0.1349-0.6202,0.1394-0.9171-0.0175c-0.497-0.2627-0.687-0.8786-0.4242-1.3757
	c0.7392-1.3983,0.7765-3.0192,0.1026-4.4473c-0.6738-1.4282-1.9489-2.4298-3.498-2.7482c-0.5507-0.1132-0.9054-0.6514-0.7922-1.2021
	c0.1131-0.5507,0.6514-0.9052,1.202-0.7922c2.1828,0.4487,3.9795,1.8605,4.9295,3.8737c0.9498,2.013,0.8973,4.2975-0.144,6.2675
	C62.7529,34.2352,62.5896,34.3856,62.4,34.4766z"/>
<path class="st0" d="M68.116,35.3591c-0.254,0.1219-0.5569,0.1385-0.8367,0.0204c-0.5179-0.2187-0.7606-0.8158-0.542-1.3337
	c1.0784-2.5549,1.0187-5.4573-0.1639-7.9634c-1.183-2.5073-3.3868-4.3992-6.0463-5.1903c-0.5389-0.1603-0.8457-0.7272-0.6854-1.266
	c0.1604-0.5389,0.7271-0.8456,1.266-0.6854c3.2138,0.9562,5.8771,3.2426,7.3071,6.2729c1.4291,3.0288,1.5014,6.5366,0.1982,9.6239
	C68.5125,35.0755,68.3319,35.2554,68.116,35.3591z"/>
<circle class="st1" cx="46.8408" cy="33.3367" r="10.8888"/>
<path class="st0" d="M46.8407,44.9514c-6.4043,0-11.6147-5.2104-11.6147-11.6147s5.2104-11.6147,11.6147-11.6147
	c6.4048,0,11.6152,5.2104,11.6152,11.6147S53.2455,44.9514,46.8407,44.9514z M46.8407,23.1741
	c-5.604,0-10.1626,4.5586-10.1626,10.1626s4.5586,10.1626,10.1626,10.1626s10.1631-4.5586,10.1631-10.1626
	S52.4447,23.1741,46.8407,23.1741z"/>
<ellipse class="st2" cx="46.8408" cy="33.3367" rx="5.7308" ry="10.8888"/>
<path class="st1" d="M55.4384,26.4575c0,0-3.4396,1.7212-8.5976,1.7212c-5.158,0-8.5969-1.7212-8.5969-1.7212"/>
<path class="st0" d="M46.8407,28.905c-5.2686,0-8.7749-1.7251-8.9219-1.7988l0.6494-1.2983c0.0327,0.0161,3.3667,1.645,8.2725,1.645
	c4.9297,0,8.2397-1.6284,8.2729-1.6445l0.6494,1.2979C55.6166,27.1799,52.1097,28.905,46.8407,28.905z"/>
<path class="st2" d="M38.2439,40.2159c0,0,3.4389-1.7212,8.5969-1.7212c5.158,0,8.5976,1.7212,8.5976,1.7212"/>
<line class="st2" x1="35.952" y1="33.3367" x2="57.7296" y2="33.3367"/>
<line class="st2" x1="46.8408" y1="22.4479" x2="46.8408" y2="44.2255"/>
</svg>
