<?xml version="1.0" encoding="utf-8"?>
<!-- Generator: Adobe Illustrator 23.0.1, SVG Export Plug-In . SVG Version: 6.00 Build 0)  -->
<svg version="1.1" id="Layer_1" xmlns="http://www.w3.org/2000/svg" xmlns:xlink="http://www.w3.org/1999/xlink" x="0px" y="0px"
	 width="72px" height="72px" viewBox="0 0 72 72" style="enable-background:new 0 0 72 72;" xml:space="preserve">
<style type="text/css">
	.st0{fill:#E1006E;}
	.st1{fill:#FFFFFF;}
	.st2{fill:#82BB25;}
	.st3{fill:#FFB125;}
</style>
<path class="st0" d="M46.1783,8.9714H25.8214c-2.6453,0-4.7898,2.1436-4.7898,4.7879v37.4221v0.94v6.2951
	c0,2.534,2.0552,4.5883,4.5903,4.5883H46.378c2.5352,0,4.5903-2.0543,4.5903-4.5883v-6.852v-0.3831V13.7593
	C50.9684,11.115,48.8238,8.9714,46.1783,8.9714z"/>
<path class="st1" d="M48.9261,51.1814v2.035h0.0046v0.4178c0.0007,0,0.0012-0.0002,0.0017-0.0002v4.7826
	c0,1.4078-1.146,2.5533-2.5544,2.5533H25.6219c-1.4087,0-2.5544-1.1455-2.5544-2.5533v-4.7787h0.0017v-0.4214h0.0059v-2.035h-0.0076
	V13.7593c0-1.5179,1.2354-2.7529,2.7539-2.7529h3.5447c-0.0229,0.0559-0.0364,0.1166-0.0364,0.1808v0.6379
	c0,0.2643,0.2144,0.4785,0.4788,0.4785h12.3828c0.2646,0,0.4788-0.2143,0.4788-0.4785v-0.6379c0-0.0642-0.0134-0.1249-0.0364-0.1808
	h3.5447c1.5186,0,2.7542,1.2351,2.7542,2.7529v37.4221H48.9261z"/>
<circle class="st0" cx="36" cy="56.093" r="1.723"/>
<path id="XMLID_55_" class="st2" d="M52.4585,44.0288l4.214-4.8557c0.0793-0.0922,0.1869-0.5294,0.1869-0.6358V20.5507
	c0-1.1215-0.7459-2.034-1.6632-2.034H41.1659c-0.9173,0-1.6636,0.9125-1.6636,2.034v21.7089c0,1.1215,0.7463,2.034,1.6636,2.034
	h10.7265C52.0053,44.2935,52.3837,44.1147,52.4585,44.0288z"/>
<path id="XMLID_54_" class="st1" d="M51.4307,43.1649H41.1659c-0.4081,0-0.7401-0.407-0.7401-0.9053V20.5507
	c0-0.4991,0.332-0.9053,0.7401-0.9053h14.0303c0.4081,0,0.7401,0.4062,0.7401,0.9053v17.4223h-2.1559
	c-1.2955,0-2.3497,1.2876-2.3497,2.871V43.1649z"/>
<path d="M47.326,53.9693c0.0881,0.0559,0.1383,0.0831,0.1383,0.0831L47.326,53.9693z"/>
<path d="M61.5757,54.0523l0.0258-0.0196C61.5727,54.0523,61.562,54.0599,61.5757,54.0523z"/>
<path class="st3" d="M50.0873,30.7327c-0.4516-0.1147,1.4019-2.2917-1.8924-4.8984c0,0,0.4322,1.3653-1.7472,4.4118
	c-2.0654,2.8851,0.6524,4.665,0.9455,4.8448c-0.1872-0.1203-1.3182-0.987,0.2656-3.5566c0.3059-0.506,0.71-0.9641,1.2097-1.9951
	c0,0,0.4424,0.6207,0.2113,1.9666c-0.3465,2.0349,1.4972,1.4518,1.5251,1.4803c0.6327,0.7404-0.4928,2.0324-0.6001,2.1165
	c0.1527-0.1009,3.2734-2.1565,0.9177-5.2006C50.7559,30.0681,50.5387,30.8475,50.0873,30.7327z"/>
<path class="st3" d="M46.687,23.6305c-0.4984,0.1221-0.8075,0.2809-0.8973,0.4522c-0.0304,0.0614-0.0412,0.1307-0.0309,0.1984
	c0.0185,0.0584,0.0539,0.1258,0.1097,0.1547c0.0966,0.0501,0.2866,0.0053,0.6113-0.0923c1.2966-0.4332,2.5565-0.337,3.7974,0.3103
	c1.3731,0.7153,2.237,1.7464,2.6251,3.0841c0.0704,0.2752,0.1628,0.4212,0.2764,0.4805c0.0556,0.0288,0.1336,0.0207,0.2095,0.0112
	c0.0686-0.0222,0.1273-0.0674,0.166-0.1279c0.1083-0.2066,0.0147-0.6231-0.2657-1.2485c-0.5214-1.2051-1.3484-2.0564-2.7032-2.7816
	S48.0799,23.2929,46.687,23.6305z"/>
<path class="st3" d="M44.9131,36.4104c1.2688,0.8654,2.4087,1.2067,3.725,1.1158c0.6877-0.0385,1.1029-0.1464,1.2381-0.3367
	c0.0364-0.0619,0.05-0.1345,0.0384-0.2053c-0.0263-0.0714-0.0547-0.1441-0.1059-0.1801c-0.1051-0.0732-0.2779-0.0881-0.5562-0.0243
	c-1.3739,0.2694-2.6915-0.0221-3.9598-0.9083c-1.1469-0.8004-1.8099-1.87-2.0161-3.2144c-0.0613-0.3316-0.1083-0.52-0.1973-0.5825
	c-0.0514-0.0361-0.1278-0.0365-0.1885-0.0261c-0.0653,0.0219-0.1222,0.0632-0.1632,0.1182
	c-0.1121,0.1577-0.1125,0.5037,0.0065,1.0001C43.0698,34.5525,43.6443,35.545,44.9131,36.4104z"/>
</svg>
