<?xml version="1.0" encoding="utf-8"?>
<!-- Generator: Adobe Illustrator 23.0.1, SVG Export Plug-In . SVG Version: 6.00 Build 0)  -->
<svg version="1.1" id="Layer_1" xmlns="http://www.w3.org/2000/svg" xmlns:xlink="http://www.w3.org/1999/xlink" x="0px" y="0px"
	 width="72px" height="71px" viewBox="0 0 72 71" style="enable-background:new 0 0 72 71;" xml:space="preserve">
<style type="text/css">
	.st0{fill:#515050;}
	.st1{fill:#FFFFFF;}
</style>
<ellipse class="st0" cx="36" cy="56.2818" rx="1.7234" ry="1.7807"/>
<path class="st0" d="M56.142,17.4402h-5.1736v-4.9175c0-2.7334-2.1445-4.9492-4.79-4.9492H25.8214
	c-2.6453,0-4.7898,2.2158-4.7898,4.9492V51.205v0.9716v6.5071c0,2.6194,2.0552,4.7429,4.5903,4.7429h20.7561
	c2.5352,0,4.5903-2.1235,4.5903-4.7429V51.601v-0.396v-7.1199h1.7784c0.116,0,0.5049-0.1849,0.5818-0.2736l4.3306-5.0192
	c0.0815-0.0953,0.1921-0.5472,0.1921-0.6572V19.5427C57.8513,18.3834,57.0847,17.4402,56.142,17.4402z M48.9325,51.205h-0.0063
	v2.1035h0.0046v0.4318c0.0007,0,0.0012-0.0002,0.0017-0.0002v4.9436c0,1.4553-1.146,2.6393-2.5544,2.6393H25.6219
	c-1.4087,0-2.5544-1.1841-2.5544-2.6393v-4.9396h0.0017v-0.4356h0.0059V51.205h-0.0076V12.5226c0-1.569,1.2354-2.8456,2.7539-2.8456
	h3.5447c-0.0229,0.0578-0.0364,0.1206-0.0364,0.187v0.6594c0,0.2732,0.2144,0.4947,0.4788,0.4947h12.3828
	c0.2646,0,0.4788-0.2215,0.4788-0.4947V9.864c0-0.0663-0.0134-0.1292-0.0364-0.187h3.5447c1.5186,0,2.7542,1.2767,2.7542,2.8456
	v4.9175h-7.2092c-0.9427,0-1.7096,0.9432-1.7096,2.1025v22.4399c0,1.1592,0.7669,2.1025,1.7096,2.1025h7.2092V51.205z"/>
<path id="XMLID_54_" class="st1" d="M52.2722,42.9184h-10.549c-0.4194,0-0.7606-0.4207-0.7606-0.9358V19.5427
	c0-0.5159,0.3412-0.9358,0.7606-0.9358H56.142c0.4194,0,0.7606,0.4199,0.7606,0.9358v18.009H54.687
	c-1.3313,0-2.4147,1.331-2.4147,2.9677V42.9184z"/>
<path d="M48.0539,54.0866c0.0906,0.0578,0.1421,0.0859,0.1421,0.0859L48.0539,54.0866z"/>
<path d="M62.6981,54.1725l0.0265-0.0203C62.695,54.1725,62.6841,54.1803,62.6981,54.1725z"/>
<path class="st0" d="M50.8917,30.0676c-0.4641-0.1186,1.4407-2.3689-1.9448-5.0633c0,0,0.4441,1.4112-1.7956,4.5604
	c-2.1226,2.9822,0.6705,4.8221,0.9717,5.0079c-0.1923-0.1243-1.3546-1.0203,0.2729-3.6764c0.3144-0.523,0.7296-0.9965,1.2432-2.0623
	c0,0,0.4547,0.6416,0.2172,2.0328c-0.3561,2.1034,1.5387,1.5007,1.5673,1.5301c0.6502,0.7653-0.5064,2.1008-0.6167,2.1877
	c0.1569-0.1043,3.364-2.2292,0.9431-5.3757C51.5788,29.3806,51.3556,30.1862,50.8917,30.0676z"/>
<path class="st0" d="M47.3972,22.7262c-0.5122,0.1262-0.8299,0.2904-0.9221,0.4674c-0.0313,0.0635-0.0424,0.1351-0.0318,0.2051
	c0.019,0.0604,0.0554,0.13,0.1127,0.1599c0.0993,0.0517,0.2946,0.0055,0.6282-0.0954c1.3324-0.4478,2.6273-0.3483,3.9025,0.3208
	c1.4111,0.7393,2.2989,1.8052,2.6978,3.188c0.0724,0.2844,0.1673,0.4353,0.2841,0.4967c0.0571,0.0298,0.1373,0.0214,0.2154,0.0115
	c0.0705-0.0229,0.1308-0.0697,0.1706-0.1322c0.1113-0.2136,0.0151-0.6441-0.2731-1.2906c-0.5358-1.2457-1.3858-2.1256-2.778-2.8753
	C50.0112,22.4324,48.8287,22.3772,47.3972,22.7262z"/>
<path class="st0" d="M45.5742,35.9365c1.3039,0.8946,2.4753,1.2473,3.8281,1.1533c0.7067-0.0398,1.1334-0.1514,1.2724-0.3481
	c0.0374-0.064,0.0514-0.139,0.0395-0.2122c-0.027-0.0738-0.0562-0.149-0.1089-0.1862c-0.108-0.0757-0.2856-0.091-0.5716-0.0252
	c-1.4119,0.2785-2.766-0.0228-4.0694-0.9388c-1.1787-0.8274-1.86-1.933-2.0719-3.3226c-0.063-0.3428-0.1113-0.5376-0.2028-0.6022
	c-0.0528-0.0373-0.1314-0.0377-0.1937-0.027c-0.0671,0.0227-0.1256,0.0653-0.1677,0.1222c-0.1152,0.163-0.1156,0.5206,0.0066,1.0338
	C43.6799,34.016,44.2703,35.0419,45.5742,35.9365z"/>
</svg>
