<?xml version="1.0" encoding="utf-8"?>
<!-- Generator: Adobe Illustrator 25.4.1, SVG Export Plug-In . SVG Version: 6.00 Build 0)  -->
<svg version="1.1" id="Layer_1" xmlns="http://www.w3.org/2000/svg" xmlns:xlink="http://www.w3.org/1999/xlink" x="0px" y="0px"
	 viewBox="0 0 72 71" style="enable-background:new 0 0 72 71;" xml:space="preserve">
<style type="text/css">
	.st0{fill:#515050;}
</style>
<path class="st0" d="M46.178,8.471H25.821c-2.645,0-4.79,2.145-4.79,4.79V50.7v0.94v6.298c0,2.535,2.055,4.59,4.59,4.59h20.756
	c2.535,0,4.59-2.055,4.59-4.59v-6.855V50.7V13.261C50.968,10.616,48.824,8.471,46.178,8.471z M48.926,50.7v2.036h0.005v0.418
	c0.001,0,0.001,0,0.002,0v4.785c0,1.408-1.146,2.554-2.554,2.554H25.622c-1.409,0-2.554-1.146-2.554-2.554v-4.781h0.002v-0.422
	h0.006V50.7h-0.008V13.261c0-1.519,1.235-2.754,2.754-2.754h3.545c-0.023,0.056-0.036,0.117-0.036,0.181v0.638
	c0,0.264,0.214,0.479,0.479,0.479h12.383c0.265,0,0.479-0.214,0.479-0.479v-0.638c0-0.064-0.013-0.125-0.036-0.181h3.545
	c1.519,0,2.754,1.236,2.754,2.754V50.7H48.926z"/>
<circle class="st0" cx="36" cy="55.614" r="1.723"/>
<path class="st0" d="M35.13,34.031h-6.499v-6.499h6.499V34.031z M29.631,33.031h4.499v-4.499h-4.499V33.031z"/>
<path class="st0" d="M35.13,43.468h-6.499v-6.499h6.499V43.468z M29.631,42.468h4.499v-4.499h-4.499V42.468z"/>
<path class="st0" d="M43.369,34.031H36.87v-6.499h6.499V34.031z M37.87,33.031h4.499v-4.499H37.87V33.031z"/>
<path class="st0" d="M43.369,43.468H36.87v-6.499h6.499V43.468z M37.87,42.468h4.499v-4.499H37.87V42.468z"/>
</svg>
