<?xml version="1.0" encoding="utf-8"?>
<!-- Generator: Adobe Illustrator 23.0.1, SVG Export Plug-In . SVG Version: 6.00 Build 0)  -->
<svg version="1.1" id="Layer_1" xmlns="http://www.w3.org/2000/svg" xmlns:xlink="http://www.w3.org/1999/xlink" x="0px" y="0px"
	 width="72px" height="72px" viewBox="0 0 72 72" style="enable-background:new 0 0 72 72;" xml:space="preserve">
<style type="text/css">
	.st0{fill:#515050;}
	.st1{fill:#FFFFFF;}
</style>
<path class="st0" d="M46.1783,8.9714H25.8214c-2.6453,0-4.7898,2.1445-4.7898,4.79V51.2v0.9404v6.2979
	c0,2.5352,2.0552,4.5903,4.5903,4.5903H46.378c2.5352,0,4.5903-2.0552,4.5903-4.5903v-6.855V51.2V13.7615
	C50.9684,11.116,48.8239,8.9714,46.1783,8.9714z M48.9261,51.2v2.0359h0.0046v0.418c0.0007,0,0.0012-0.0002,0.0017-0.0002v4.7847
	c0,1.4084-1.146,2.5544-2.5544,2.5544H25.6219c-1.4087,0-2.5544-1.146-2.5544-2.5544v-4.7808h0.0017V53.236h0.0059V51.2h-0.0076
	V13.7615c0-1.5186,1.2354-2.7542,2.7539-2.7542h3.5447c-0.0229,0.0559-0.0364,0.1167-0.0364,0.1809v0.6382
	c0,0.2644,0.2144,0.4788,0.4788,0.4788h12.3828c0.2646,0,0.4788-0.2144,0.4788-0.4788v-0.6382c0-0.0642-0.0134-0.125-0.0364-0.1809
	h3.5447c1.5186,0,2.7542,1.2356,2.7542,2.7542V51.2H48.9261z"/>
<circle class="st0" cx="36" cy="56.1136" r="1.7234"/>
<path class="st0" d="M44.451,21.8243c-6.3658,0-11.5449,5.179-11.5449,11.5447c0,6.3658,5.1791,11.5447,11.5449,11.5447
	s11.5446-5.1789,11.5446-11.5447C55.9957,27.0032,50.8168,21.8243,44.451,21.8243z"/>
<path class="st1" d="M44.4751,44.2278c-5.9891,0-10.8614-4.8723-10.8614-10.8612c0-4.7543,3.0717-8.802,7.3339-10.2701
	c-0.0608,0.0284-0.122,0.0559-0.1813,0.0876l0.0141-0.0008c0.0326-0.0127,0.0761-0.0297,0.1088-0.0425
	c0.0215-0.009,0.027-0.0116,0.0325-0.0142c0.008-0.0006,0.0443-0.0055,0.0443-0.0055c0.0008,0.0004,0.014-0.0051,0.014-0.0051
	c0.0786-0.028,0.1453-0.0896,0.2361-0.083l-0.0106,0.0065l-0.0516,0.0239c-0.0567,0.0231-0.1312,0.0571-0.1852,0.0859
	c-0.0153,0.0087-0.0648,0.0385-0.0648,0.0385c0.0066-0.0059,0.06-0.037,0.06-0.037c0.0016-0.0286,0.0002-0.028-0.0011-0.0273
	c-0.0102,0.0024-0.0459,0.0067-0.0459,0.0067l-0.0116,0.0043l-0.0195,0.0091c-0.0542,0.0254-0.1259,0.0616-0.1751,0.0958
	l-0.0457,0.0225c-0.0566,0.031-0.1326,0.0712-0.1902,0.1002c-0.038,0.0244-0.0913,0.0545-0.1233,0.0863l0.0225-0.0056
	c0.0309-0.0142,0.0721-0.0331,0.1029-0.0472c0.0619-0.032,0.0616-0.0321,0.0613-0.0323c0.0216-0.0017,0.0091,0.0047,0.0091,0.0047
	c-0.0005-0.0003-0.0493,0.0361-0.0493,0.0361c0.003-0.0006-0.0085,0.0063-0.0085,0.0063l-0.0197,0.0132
	c0.0039-0.0043,0.0099-0.0077,0.0158-0.011c-0.0246,0.0105-0.0807,0.0357-0.1001,0.0725c-0.2379,0.1203-0.3445,0.1705-0.3447,0.1705
	l0.0252,0.0472l-0.0292,0.018L39.98,23.7407c-0.0395,0.0199-0.0936,0.0458-0.1275,0.0742c-0.0464,0.0517-0.1146,0.108-0.1709,0.1407
	c-0.0012,0.0016-0.0474,0.0322-0.0474,0.0322l-0.0928,0.0591l-0.0748,0.073c-0.029,0.0528-0.0662,0.124-0.0921,0.1783
	c-0.0356,0.027-0.0849,0.0623-0.113,0.0971l-0.0278,0.0253l0.0106,0.0134c-0.1041,0.1421-0.1333,0.1631-0.2099,0.2078
	l-0.0351,0.0071l-0.0034-0.0644c0.0019-0.0037,0.0156,0.0092,0.0156,0.0092c0.2901-0.1713,0.381-0.4204,0.4108-0.5023l-0.039,0.0144
	c-0.0377,0.0297-0.0881,0.0694-0.1229,0.1026c-0.0749,0.0951-0.1598,0.2028-0.2463,0.3437l-0.0134,0.003
	c-0.1472,0.0824-1.1575,0.8368-1.3138,1.0021c-0.5104,0.5171-0.5104,0.5171-0.5358,0.5509
	c-0.0287,0.0506-0.0641,0.1205-0.0818,0.1759l-0.0679,0.0836c-0.0124,0.0151-0.0248,0.0302-0.0371,0.0453
	c-0.035,0.0577-0.0855,0.1324-0.127,0.1856c-0.2462,0.5322-0.1783,1.1547-0.4814,1.6705c-0.0201,0.0033-0.0469,0.0077-0.067,0.0111
	l-0.0349,0.0367c-0.0008,0.2755,0.06,0.9891,0.0606,0.9901c0.0523-0.076,0.0523-0.076,0.2572-1.3674
	c0.0886-0.1774,0.0886-0.1774,0.1773-0.2647c0.1194,0.2879-0.1067,0.5288-0.109,0.8002c-0.0053,0.0964,0.031,0.1921,0.005,0.289
	l-0.0291,0.0274c-0.0237,0.1218,0.0244,0.2389,0.0233,0.3592c0.0297,0.1593,0.0794,0.426-0.0128,0.6475
	c-0.3738,0.4393,0.6353,1.2611,0.9343,1.2274c0.5668-0.064,0.6635,0.5546,1.0637,0.7327c0.1818,0.4681,0.1818,0.4681,0.1727,0.5292
	c0.0506,0.0382,0.1257,0.0799,0.1851,0.1021c0.2306,0.2685,0.2306,0.2685,0.2757,0.2733c0.1488,0.0262,0.233,0.1747,0.3814,0.2014
	c0.0532-0.1,0.0555-0.1193,0.0578-0.1385c0.0268-0.021,0.0625-0.049,0.0892-0.07c0.0682-0.046,0.0878-0.0437,0.1074-0.0415
	c0.0592,0.0624,0.0592,0.0624,0.2159,0.5124c-0.0176,0.2294-0.0176,0.2294-0.0179,0.4594
	c-0.1593,0.1836-0.3864,0.2848-0.5551,0.4571c-0.0575,0.172-0.0597,0.1787-0.153,0.3043c-0.0246,0.1704-0.0441,0.305,0.1103,0.3195
	l0.0245-0.0292l0.0109,0.0334c-0.2455,0.364-0.2455,0.364-0.2387,0.4912c0.2371,0.5392,0.74,0.9134,0.9224,1.4866
	c0.0952,0.3092,0.6433,0.549,0.6488,0.5513c0.3452,0.1434,0.7021,0.2918,0.5673,1.2059c0.0038,0.0162,0.347,1.6772-0.0114,2.2631
	c0.0597,0.0992,0.1191,0.1987,0.1795,0.2975c-0.0292,0.0974-0.0692,0.2309,0.1051,0.383l-0.0945,0.0743
	c0.0206,0.0544,0.0704,0.122,0.12,0.1524c0.0156-0.0633,0.0106-0.1563-0.0132-0.2171c0.0317-0.005,0.074-0.0115,0.1058-0.0165
	c0.0111,0.0184,0.0259,0.043,0.0371,0.0614c0.0014,0.1838,0.0694,0.3607,0.056,0.5459c-0.0083,0.0022-0.0193,0.0052-0.0275,0.0074
	l-0.0149-0.0086l-0.0331-0.0462c-0.0591,0.0266-0.1239,0.0951-0.1519,0.1536c0.0054,0.007,0.0126,0.0164,0.018,0.0234l0.0323,0.0082
	l0.0403-0.0149c0.0486,0.009,0.1179,0.0275,0.1524,0.063c0.0073,0.0934,0.0088,0.0935,0.0102,0.0936
	c-0.0044-0.0003-0.017,0.0006-0.017,0.0006c-0.0287,0.0137-0.0671,0.0321-0.0958,0.0458c0.0195,0.0265,0.0455,0.0618,0.065,0.0883
	l0.047,0.0588l0.0056,0.0335c0.0268,0.0212,0.0626,0.0495,0.0895,0.0707c0.0442,0.0204,0.0444,0.0214,0.0446,0.0223
	c0.0106,0.0436,0.0092,0.0436,0.0078,0.0435c0.0146,0.0334,0.0257,0.0775,0.0341,0.1105c0.0251-0.0226,0.0586-0.0528,0.0837-0.0755
	c0.0224,0.0257,0.0522,0.0599,0.0746,0.0856c-0.0217,0.0156-0.0506,0.0364-0.0723,0.052l-0.0237,0.0114l0.0164,0.0176l0.0514,0.0119
	c0.0603,0.0314,0.1362,0.0821,0.1894,0.1245c0.0741,0.0324,0.0767,0.0325,0.0794,0.0326c-0.0637-0.0072-0.1327-0.0179-0.1829-0.0318
	c-0.0106,0.0056,0.004,0.0249,0.004,0.0249c0.3142,0.1406,0.3142,0.1406,0.385,0.1183c0.0111-0.0043,0.0234,0.0082,0.0234,0.0082
	l0.001,0.0155l0.029,0.0072l0.0777,0.0573c0.0723,0.0402,0.1534,0.0176,0.2293,0.0325l0.0048,0.0187l0.1299,0.0484
	c0.0791-0.0246,0.0791-0.0262,0.0789-0.0277c0.0533-0.0038,0.1179-0.0172,0.158-0.043c0.0511-0.0066,0.1222-0.0184,0.1651-0.0468
	c-0.1366-0.0301-0.1779-0.0392-0.3114-0.0847c-0.3369-0.1848-0.3369-0.1848-0.3557-0.1851
	c-0.0096,0.0048-0.0187,0.0284-0.0187,0.0284l-0.0518,0.0877c-0.0094,0.0046-0.0208-0.0033-0.0208-0.0033
	c0.0133-0.0298,0.031-0.0695,0.0443-0.0993c0.0116-0.0042,0.0271-0.0097,0.0387-0.0139c0.0083,0.0003,0.0963-0.0236,0.0963-0.0236
	l0.0281-0.0081c-0.0008-0.0064-0.0015-0.0129-0.0023-0.0193c-0.0523-0.0438-0.113-0.114-0.1485-0.1723
	c0.021-0.0308,0.0491-0.0718,0.0702-0.1026c0.1149-0.1847,0.1149-0.1847,0.2004-0.255c0.002-0.0279,0.0045-0.0652,0.0064-0.0931
	c-0.0958-0.0647-0.2058-0.1023-0.3054-0.1596c-0.0027-0.0334-0.0063-0.0779-0.009-0.1113c0.061-0.0335,0.1469-0.0701,0.2127-0.0929
	c0.0082-0.0453,0.0216-0.11,0.0061-0.1533c0.0132-0.0292,0.0307-0.0681,0.0438-0.0972c0.0653-0.0588,0.0645-0.0588,0.0637-0.0588
	c-0.0051-0.0051-0.051-0.0111-0.051-0.0111l0.0014-0.0197l0.0167-0.0029l0.0278,0.0285c0.0076,0.0051,0.0463,0.0109,0.0463,0.0109
	c0.0156-0.0284,0.0364-0.0662,0.052-0.0946c-0.0198-0.0124-0.0462-0.0289-0.066-0.0413l-0.0333,0.0127
	c-0.0329-0.0026-0.0767-0.0062-0.1096-0.0088c-0.0265-0.044-0.0606-0.1037-0.0813-0.1507c0.1426-0.0149,0.2879,0.0467,0.429-0.0144
	c0.0048-0.0807,0.0248-0.1605,0.0139-0.242l-0.0107-0.0301c0.8328-0.256,0.8328-0.256,0.8379-0.4173
	c-0.0234-0.0097-0.0547-0.0227-0.0782-0.0324l-0.0252-0.0408l0.0135-0.0466c-0.0243-0.0553-0.0854-0.1185-0.1396-0.1452
	c-0.0571-0.0337-0.0605-0.0337-0.064-0.0337c-0.0025-0.0095-0.013-0.017-0.013-0.017c0.2109,0.0308,0.2144,0.0316,0.3952,0.0743
	c0.2559,0.0056,0.425,0.0093,0.6585-0.4991c0.1209-0.022,0.19-0.0692,0.2338-0.164c-0.0165-0.0067-0.0404-0.0023-0.0563,0.0058
	c-0.0292,0.0147-0.0549,0.035-0.0824,0.0524c-0.0001,0.0001-0.0069,0.0053-0.0156,0.0123l0.0129-0.0143l0.006-0.0164
	c0.0244-0.0407,0.0564-0.1025,0.099-0.1231l0.0232,0.0213l0.0141,0.0438c0.4455-0.4103,0.3914-0.5621,0.3591-0.6529
	c0.0096-0.4993,0.5328-0.4638,0.7952-0.7002c0.3428-0.0267,0.3428-0.0267,0.6392-0.1966c0.132-0.7334,0.132-0.7334,0.6563-1.837
	c0.4719-0.7131,0.4719-0.7131,0.4729-0.7385c-0.0001-0.0022-0.0231-0.2337-0.1769-0.3948c-0.5299-0.071-1.0075-0.3668-1.555-0.3621
	l-0.1383,0.0205c-0.0229-0.0497-0.0675-0.1122-0.1122-0.1437c-0.6189-0.1068-0.6189-0.1068-0.6842-0.0401l-0.0172-0.0288
	l0.0102-0.0397c-0.0148-0.028-0.0345-0.0654-0.0494-0.0934c-0.0571-0.0156-0.1397-0.0292-0.1968-0.0137
	c0.0112,0.007-0.0026,0.005-0.0026,0.005c-0.0668,0.0004-0.1596,0.0049-0.2292,0.0059c0.0419-0.0349,0.0988-0.0805,0.1449-0.1094
	c0.0722-0.2582-0.3895-0.8243-0.76-0.9319c-0.183-0.0542-0.3746-0.0281-0.5601-0.0595c-0.0848-0.0541-0.1896-0.0744-0.2599-0.153
	c-0.1284-0.1963-0.1473-0.204-0.4633-0.3333c-0.061-0.1248-0.2003-0.1542-0.2931-0.2402l0.0642-0.0391l0.0142-0.031l-0.018-0.0102
	c-0.1098-0.0158-0.2219-0.0159-0.3295-0.0472l-0.0259,0.0546c-0.1093,0.0558-0.1883,0.0961-0.6775-0.0373
	c-0.0031-0.0117-0.0072-0.0274-0.0103-0.039c-0.0885-0.0975-0.2138-0.1475-0.3072-0.2385l-0.0716,0.0362l-0.0158,0.0376
	c-0.0468,0.0445-0.1233,0.0912-0.185,0.1102c-0.0146-0.0243-0.0342-0.0567-0.0488-0.081c0.026-0.0202,0.0607-0.0472,0.0867-0.0674
	c-0.0007-0.025-0.0015-0.0583-0.0021-0.0833l-0.0591-0.0164c-0.1465,0.046-0.2801,0.1297-0.4355,0.1499
	c-0.0868,0.03-0.1001,0.0288-0.1134,0.0276c-0.2368,0.0639-0.4478,0.4249-0.4499,0.4286c-0.0004,0.0041-0.0009,0.0081-0.0013,0.0122
	c-0.0009-0.0148-0.0344-0.0304-0.0344-0.0304c-0.192-0.2106-0.291-0.2808-0.5707-0.181c-0.3852,0.0858-0.4676-0.4239-0.4683-0.4291
	c0.0562-0.2296,0.2136-0.4268,0.2148-0.6739l-0.0621-0.0327l-0.0123,0.0032c-0.2041-0.187-0.5005-0.0925-0.7245-0.2336
	c0.0958-0.0996,0.1034-0.251,0.2043-0.3477c0.1716-0.1178,0.2183-0.3269,0.3473-0.4759c-0.0169-0.0293-0.0395-0.0683-0.0564-0.0976
	c-0.0306-0.005-0.0306-0.005-0.8428,0.4187c-1.5757-0.5766,0.0395-1.8324,0.0675-1.8408c0.3195-0.0966,0.6258,0.1105,0.9441,0.0408
	c0.0022-0.0038,0.0052-0.0087,0.0074-0.0124c0.1876-0.3315,0.537,0.0496,0.8072,0.0334c0.094,0.1964,0.094,0.1964,0.0356,0.3109
	c-0.0396,0.253,0.0468,0.4661,0.0857,0.546c0.0317,0.0026,0.074,0.0061,0.1058,0.0088c0.0697-0.0896,0.1157-0.1487,0.1496-0.2854
	c-0.0133-0.1315-0.0133-0.1315,0.006-0.3161c-0.0127-0.5665,0.249-0.6321,0.4054-0.6713c0.0732-0.0404,0.1636-0.1067,0.229-0.1588
	c0.1603-0.0757,0.3051-0.1781,0.4571-0.2679l0.0224-0.0475c0.0176-0.079,0.0294-0.1868,0.0341-0.2676
	c0.0149-0.049,0.035-0.1155,0.0618-0.1591l0.0118,0.0072l0.0145,0.1064l0.0147-0.0051c0.095-0.104,0.127-0.139,0.1526-0.239
	l0.0264-0.0167c0.1217-0.0661,0.1344-0.073,0.2183-0.242c0.0659-0.0219,0.1548-0.0482,0.2219-0.0661l0.0098-0.0136l-0.0045-0.0145
	L42.31,27.0929l-0.0128-0.0191l0.0152-0.0031c0.0048,0.0003,0.0097,0.0006,0.0145,0.0009c0.1228-0.0006,0.1844-0.0008,0.3049-0.0409
	c-0.0204-0.1053-0.0204-0.1053,0.6043-0.5772c0.0457-0.0098,0.1072-0.0231,0.1539-0.0244l-0.0107,0.0266l-0.0551,0.0236
	c-0.0487,0.0461-0.0949,0.1318-0.1028,0.1984c0.0189,0.0154,0.0441,0.0359,0.063,0.0513c0.236-0.1417,0.236-0.1417,0.6788-0.3457
	l0.0238-0.0171l0.0084-0.0438c-0.0118-0.037-0.0264-0.0866-0.0399-0.123l-0.0346-0.0151c-0.044,0.0532-0.1017,0.1249-0.1438,0.1796
	c-0.0191-0.0033-0.0447-0.0077-0.0638-0.011l-0.026,0.015l-0.0295-0.0176l-0.0402-0.0063
	c-0.1088-0.0948-0.0793-0.2456-0.1448-0.3579c-0.0107-0.0058,0.0139-0.0144,0.0139-0.0144
	c0.0284-0.0182,0.0662-0.0425,0.0946-0.0607c-0.0032-0.0357-0.0074-0.0833-0.0106-0.119c-0.1-0.0417-0.1603-0.0669-0.47,0.0958
	c0.0803-0.1023,0.2206-0.1328,0.2929-0.2446c0.2243-0.197,0.4708-0.0153,0.7051-0.0415l0.034-0.018
	c0.1037-0.1138,0.2599-0.1509,0.3711-0.2537c-0.0067-0.0702-0.0093-0.1643-0.0082-0.2348c-0.0871-0.0565-0.0871-0.056-0.0871-0.0554
	c-0.0001-0.0017-0.0095-0.0434-0.0095-0.0434l-0.0756-0.047c-0.0107-0.0032,0.0013-0.0166,0.0013-0.0166l0.0287-0.0154
	l-0.0638-0.0845c-0.0361-0.0276-0.0847-0.0639-0.1181-0.0947c-0.0329-0.0565-0.0763-0.1321-0.1083-0.1891
	c0.0567-0.125,0.0567-0.125,0.0056-0.24c-0.0389-0.1516-0.0258-0.3134-0.0908-0.4599c-0.1132,0.2262-0.1132,0.2262-0.1818,0.2952
	c-0.0298-0.0127-0.0696-0.0297-0.0994-0.0424c-0.0193-0.0705-0.0152-0.1722,0.0007-0.2435c0.0161-0.0385,0.0456-0.0924,0.039-0.1336
	l-0.0805-0.0874l0.0019-0.032c-0.0054-0.032-0.0125-0.0747-0.0179-0.1066c-0.057-0.0304-0.1356-0.0662-0.1959-0.0895
	c-0.0831,0.1483-0.0986,0.33-0.2256,0.4567c-0.1492,0.1662-0.1371,0.3908-0.2111,0.5842c-0.363,0.2779-0.363,0.2779-0.5117,0.6525
	l-0.0778,0.0839l-0.1053,0.0157l0.0006-0.0401c-0.0092-0.0839-0.0116-0.1222,0.029-0.2276
	c0.0097,0.0069,0.0197,0.0134,0.0302,0.0191l0.017,0.0031l0.0232-0.0099c0.0041-0.0123,0.0152-0.0288,0.0121-0.0414
	c-0.0042-0.017-0.0139-0.0262-0.0295-0.0283c-0.0086-0.0004-0.0144,0.0008-0.0238,0.005l-0.0134,0.0124
	c0.0325-0.0776,0.0837-0.1868,0.1649-0.3594c-0.034-0.013-0.0793-0.0303-0.1133-0.0433c-0.018-0.0029-0.0182-0.003-0.0183-0.003
	c-0.0526-0.1356-0.0636-0.2816-0.1209-0.4145c-0.0358-0.0034-0.0835-0.0104-0.1194-0.01c0.1712-0.1847,0.1999-0.2849,0.1998-0.2855
	l-0.0022-0.0693c0.3782-0.3887,0.7344-0.5652,0.7378-0.5668c0.0306-0.0447,0.03-0.0448,0.0294-0.0448
	c0.0017,0.0002,0.1042-0.0558,0.1042-0.0558c0.0649-0.028,0.1459-0.08,0.1977-0.1281c0.0244-0.0233,0.0547-0.0522,0.0813-0.0776
	c-0.1504,0.2029-0.17,0.2188-0.2129,0.2533c-0.0296,0.0329-0.0182,0.0453-0.0144,0.0493c0.0052,0.0116-0.0005,0.0207-0.0193,0.0509
	c-0.0201,0.0389-0.0017,0.0333,0.0145,0.0283c0.0085-0.0026,0.0116-0.005,0.0168-0.0098c0.004-0.0038,0.0094-0.0087,0.0136-0.0123
	c0.017-0.0144,0.0359-0.0265,0.0529-0.0409c0.017-0.0143,0.0269-0.0364,0.0491-0.045c0.0036,0.0094,0.0036,0.0094-0.0059,0.0754
	c0.0093,0.0127,0.0158,0.0203,0.0269,0.0309c0.0452-0.0339,0.0488-0.0415,0.0512-0.0465c0.0053-0.0111,0.0098-0.0263,0.0013-0.036
	c-0.007-0.007-0.007-0.007,0.0122-0.0717c0.0067-0.0224,0.0049-0.0458,0.008-0.0687c0.0043-0.0314,0.004-0.0634,0.012-0.0944
	c-0.009-0.0134-0.0082-0.0148,0.0082-0.0311c0.0249-0.0246,0.0249-0.0246,0.0353-0.0445c-0.0099,0.0006-0.0133,0.0037-0.0181,0.0037
	c-0.0055,0-0.0088-0.0052-0.014-0.0057c-0.0052,0.0044-0.0121,0.0102-0.0173,0.0146c0.0051-0.0049,0.011-0.0105,0.0157-0.015
	c0.001-0.001,0.0118-0.0109,0.0118-0.0109l0.0361-0.0578l0.0112-0.0138l0.0073,0.034c0.1168-0.0489,0.12-0.0513,0.2169-0.2445
	c0.0309-0.0019,0.0613-0.0054,0.0922-0.007c0.0042,0.004,0.0101,0.003,0.0144,0.0019c0.003,0.0075-0.0003,0.0203-0.0003,0.0203
	l-0.0078,0.01l-0.0045,0.0204c0.019,0.015,0.0184,0.0271,0.019,0.0391c0.0128,0.0332-0.0145,0.1527-0.0148,0.1537
	c-0.0176,0.0545-0.0694,0.0855-0.0935,0.1356c-0.0132,0.0273-0.0033,0.0582-0.0132,0.086
	c-0.0249,0.0006-0.0399,0.0278-0.0661,0.0249c-0.0109-0.0012-0.0109-0.0012-0.0339-0.0361
	c-0.0039-0.0008-0.0091-0.0018-0.0129-0.0026c-0.0195,0.0281-0.0431,0.0532-0.0623,0.0815
	c-0.0282,0.0512-0.0099,0.1065,0.0215,0.0943c0.0147-0.0057,0.0272-0.0175,0.0443-0.017c0.0161,0.019,0.0473,0.0012,0.0613,0.0252
	c0.0195,0.0335,0.0075,0.0715,0.0155,0.1067c0.0125,0.0543-0.0174,0.116,0.0291,0.1643c0.0576,0.0551,0.081,0.1392,0.1586,0.1737
	c0.0033-0.0032,0.0076-0.0074,0.0108-0.0106c0.0306-0.1005-0.0658-0.1716-0.0615-0.266c0.0125,0.0095,0.0297,0.0226,0.0452,0.0566
	l0.085,0.1541c0.002,0.0034,0.0073,0.0055,0.0105,0.0078l0.0042-0.017c-0.0245-0.0722,0.0352-0.1361,0.0204-0.2074
	c-0.0111-0.0412-0.01-0.084-0.0171-0.1258c-0.0062-0.0365-0.0406-0.0581-0.0493-0.0932c-0.0001-0.0003-0.0156-0.1145-0.0157-0.1153
	c0.0208,0.0009,0.0208,0.0009,0.0289-0.0531c0.0324,0.0595,0.0439,0.1232,0.0653,0.184c0.0179,0.0276,0.0245,0.032,0.0378,0.0407
	c0.013-0.0891,0.013-0.0891,0.0301-0.0995c0.0117-0.0138,0.0412-0.0994,0.0397-0.1211l-0.0048-0.0261
	c-0.0089-0.0232-0.0302-0.0367-0.0439-0.0561c-0.0013-0.0068-0.0024-0.0124-0.0034-0.018c-0.0002-0.001-0.0077-0.0125-0.0077-0.0125
	c-0.0144-0.0018-0.1072-0.2179-0.1072-0.2179c0.0045-0.0222-0.0039-0.0454,0.0055-0.0673c0.0034,0.0031,0.0082,0.0071,0.0118,0.01
	c0.0034-0.0162,0.0023-0.0233,0.0013-0.0302c0.055-0.0052,0.1114-0.0058,0.1675-0.0072c0.0208,0.0373,0.0511,0.0815,0.0713,0.0953
	c0.0053,0.0012,0.013,0.0002,0.0179-0.0021c0.0044-0.0196-0.0055-0.0341-0.0373-0.0675c-0.0083-0.0082-0.015-0.0177-0.0225-0.0265
	c0.0261,0.0123,0.0464,0.0234,0.0622,0.0406l0.0089,0.0204c0.0037,0.0062,0.0085,0.0146,0.012,0.0209
	c0.009,0.0145,0.0143,0.022,0.0195,0.0295c0.0082,0.0108,0.0082,0.0108,0.0082,0.0293c0.017,0.0291,0.0174,0.0356,0.0181,0.0446
	c-0.0052,0.0019-0.0125,0.0035-0.018,0.0038c0.0098,0.0292,0.0173,0.0403,0.0283,0.0529c-0.0161,0.0068-0.0105,0.0226-0.0069,0.033
	c0.0027,0.0267,0.0156,0.1177,0.0699,0.1658c0.0009,0.0571,0.0009,0.0571,0.0061,0.0692c0.0408,0.0934,0.1002,0.177,0.1419,0.2699
	l0.0196,0.0163c0.0201-0.0158,0.0201-0.0158,0.027-0.0255c0.0055,0.1388,0.0055,0.1388,0.0694,0.2167
	c0.0005,0.0013,0.0223,0.0251,0.0223,0.0251c0.0146,0.0131,0.0146,0.0131,0.0392,0.0779c0.0451,0.0468,0.0611,0.0925,0.0833,0.1557
	c0.063,0.0651,0.1256,0.1175,0.1258,0.1176c0.0341-0.013,0.0341-0.013,0.0573-0.0301c0.0049-0.0018,0.0049-0.0018,0.1299,0.1292
	l0.0265,0.0155c0.0854-0.0048,0.0854-0.0048,0.0846-0.0193c-0.0001-0.0014-0.0228-0.175-0.1062-0.3728
	c-0.0169-0.0162-0.0049-0.0036-0.0049-0.0036c0.0054,0.0025,0.0319-0.136-0.0668-0.2442c-0.0167-0.0183-0.0179-0.0203-0.0141-0.0457
	L45.055,23.276l-0.0181-0.0173c-0.0055-0.0054-0.0126-0.0128-0.0178-0.0184c0.0165-0.0354-0.0048-0.0524,0.0007-0.0742
	c0.0205-0.0013,0.0376-0.0162,0.0587-0.0152c0.0016-0.0038,0.0037-0.0089,0.0053-0.0127l-0.002-0.0175
	c0.0235-0.0124,0.0309-0.0211,0.0152-0.0637c0.0103-0.0508-0.1304-0.2332-0.1319-0.235c0.0045-0.0031,0.0121-0.0053,0.0176-0.0051
	c0.0026-0.0063,0.0051-0.015,0.0067-0.0215c0.0395-0.1079-0.1361-0.2117-0.1716-0.2314c-0.0293-0.0081-0.1012-0.0192-0.1031-0.0183
	c-0.0099-0.0047-0.0299-0.0162-0.0299-0.0162c-0.0057-0.0081-0.013-0.0134-0.0198-0.0198c0.0096,0.0002,0.0193,0.0005,0.0289,0.0007
	c0.0448,0.0201,0.0491,0.0194,0.0581,0.0167c-0.0011-0.0032-0.0091-0.0089-0.0203-0.0158c0.3635,0.0085,0.7224,0.0347,1.0763,0.0782
	c0.0021,0.0014,0.0307,0.0105,0.0307,0.0105c-0.0052-0.003-0.0222-0.0094-0.0222-0.0094c0.0237,0.0029,0.0474,0.0059,0.0711,0.009
	c0.017,0.0062,0.0342,0.0123,0.0509,0.0195c0.0335,0.0112,0.0671,0.0223,0.1003,0.0343l0.0462,0.0179
	c0.0012,0.0004,0.1796,0.0697,0.3431,0.1472c0.0827,0.03,0.2271,0.0859,0.264,0.1233l0.0226,0.0125
	c0.0914,0.0403,0.1726,0.0986,0.2596,0.1468c0.0062,0.0041,0.0144,0.0097,0.0206,0.0138c-0.0056,0.0031-0.0131,0.0072-0.0187,0.0102
	c0.014,0.0099,0.0249,0.0152,0.0359,0.0206l0.0147,0.0048l0.0418,0.0218c0.0615,0.0783,0.0652,0.083,0.1004,0.1038
	c0.0336,0.0177,0.0522,0.0513,0.0798,0.0754c0.0837,0.0499,0.1652,0.1037,0.2515,0.1492c0.2296,0.1134,0.2296,0.1134,0.2541,0.1301
	l0.0387,0.0365l0.0448,0.0253l0.0317,0.0062l0.0407,0.0211l0.0381,0.0375l0.0631,0.0387c0.0957,0.0357,0.158,0.0514,0.1849,0.0468
	c-0.0067-0.0827-0.1742-0.2222-0.1759-0.2235c0.0028-0.0016,0.0599,0.0189,0.0599,0.0189c0.3524,0.1874,0.3524,0.1874,0.4415,0.2307
	c0.0414,0.0201,0.0829,0.04,0.125,0.0587c0.015,0.0098,0.03,0.0195,0.045,0.0293l0.0418,0.0315
	c0.003,0.0007,0.0069,0.0033,0.0109,0.0059l0.0391,0.0181c0.0405,0.0222,0.0755,0.0413,0.0904,0.0437
	c0.0173,0.0028,0.0176-0.0258,0.0176-0.0261c-0.0005-0.008-0.0271-0.0282-0.0353-0.0343c-0.0509-0.0376-0.0477-0.0444-0.0391-0.0627
	c0.0217-0.0109-0.0095-0.0361-0.0323-0.0545c0.0029-0.0155-0.0015-0.0232-0.0742-0.0704l-0.0339-0.0211
	c-0.0063-0.0036-0.0128-0.0071-0.0196-0.0099c-0.0129,0.0014-0.014,0.0022-0.0152,0.003l-0.0154-0.0076
	c-0.2082-0.1243-0.3912-0.2879-0.612-0.3926c-0.4046-0.1515-0.4046-0.1515-0.6001-0.2537c-0.2639-0.1488-0.555-0.2409-0.8173-0.3931
	c0.0091-0.0071,0.0166-0.0128,0.0309-0.0137c0.0227,0.0046,0.0454,0.0093,0.0681,0.014c0.1176,0.0386,0.4014,0.167,1.1643,0.5122
	c0.0433,0.0189,0.0433,0.0189,0.1146,0.0348c0.0061,0.0011,0.033,0.0062,0.033,0.0062c0.025,0,0.025,0,0.0815,0.0186
	c0.0013-0.0064,0.0032-0.015,0.0045-0.0214c-0.0721-0.0735-0.0721-0.0735-0.0697-0.1233c0.0412,0.0102,0.0724,0.0119,0.1028,0.0171
	l0.0135,0.0056c0.0392,0.0281,0.1316,0.0987,0.1318,0.0988c-0.0234,0.0041-0.0474,0.0059-0.07,0.0141
	c0.0341,0.0477,0.0874,0.094,0.1409,0.1333l-0.0176-0.0007l0.021,0.0143l0.0278,0.0107c0.0742,0.0492,0.1486,0.0879,0.1497,0.0883
	c-0.0125-0.0225-0.0125-0.0225-0.0476-0.0521c0.0176,0.0014,0.0412,0.0034,0.0588,0.0048l0.0444,0.0164
	c0.1555,0.0808,0.1589,0.0838,0.1859,0.1075c-0.0059,0.0006-0.0138,0.0015-0.0197,0.0021
	c-0.0367-0.0124-0.0727-0.0269-0.1094-0.0394c0.0002,0.0076,0.0005,0.0178,0.0007,0.0254c0.0231,0.0211,0.0308,0.0263,0.1202,0.0863
	c0.1181,0.0784,0.2476,0.1378,0.364,0.219c0.0252,0.0484,0.0252,0.0484,0.0891,0.0962c-0.0176,0.0022-0.0411,0.005-0.0588,0.0072
	c-0.0117-0.0044-0.0273-0.0103-0.039-0.0147c-0.0187,0.0993,0.0932,0.145,0.0967,0.2353c-0.0811-0.0328-0.0811-0.0328-0.1495-0.0765
	l-0.0259-0.0039c0.0253,0.0451,0.0253,0.0451,0.0276,0.1123c-0.0732-0.0309-0.1529-0.0467-0.2192-0.0938
	c0.0313-0.0008,0.0698,0.007,0.0982,0.0141c0.0005-0.0131,0.0013-0.0304,0.0018-0.0435c-0.1356-0.1195-0.1985-0.1509-0.2052-0.154
	c0.0053,0.0584,0.007,0.0694,0.1429,0.1369l0.0238,0.0181c-0.077-0.0243-0.1319-0.0503-0.1865-0.0766
	c-0.0327-0.0269-0.0602-0.0593-0.0924-0.0868l-0.0148-0.0059c-0.06-0.0216-0.0692-0.025-0.136-0.0748
	c-0.0199,0.0067-0.0366,0.016-0.0537,0.0253l0.0286,0.0402c0.0691,0.0504,0.1402,0.0982,0.2064,0.1527
	c0.0308,0.0223,0.0759,0.0464,0.11,0.0633c0.2329,0.1489,0.2329,0.1489,0.2693,0.2085c-0.0112,0.0055-0.0261,0.0128-0.0373,0.0183
	c0.0311,0.1974,0.1666,0.3466,0.242,0.5236c0.0778,0.0904,0.079,0.098,0.066,0.1401c0.0054,0.0259,0.015,0.0599,0.024,0.0848
	c-0.0383,0.0091-0.0757-0.0027-0.1136-0.0041l0.0108,0.0314c0.034,0.0294,0.0681,0.0586,0.101,0.0892
	c-0.0063,0.0116-0.0146,0.0271-0.0209,0.0387c-0.0788-0.0031-0.0788-0.0031-0.1118,0.0503
	c0.0043,0.0134,0.0101,0.0312,0.0144,0.0446c0.2526,0.2437,0.6593,0.2946,0.8191,0.6544c-0.0306,0.0301-0.0507,0.0499-0.1621,0.0557
	c-0.0732,0.051-0.1618,0.0396-0.2427,0.0598c-0.0256-0.0013-0.0611,0.0079-0.0825,0.022c-0.0012,0.0225-0.0066,0.0537-0.0189,0.0726
	l-0.0105,0.0166l0.0219,0.0581c0.0414,0.0355,0.0414,0.0355,0.1492,0.1705c0.1844,0.2221,0.307,0.4835,0.4607,0.7251l0.0294,0.0213
	c0.1674,0.0262,0.1674,0.0262,0.3703,0.0955c0.0909-0.0692,0.1606-0.1609,0.2483-0.2336c-0.0191-0.2938-0.0191-0.2938-0.0774-0.3901
	c-0.1036-0.0863-0.1051-0.0928-0.1432-0.258c-0.081-0.3502-0.081-0.3502-0.1635-0.4637c-0.0104-0.0226-0.0148-0.0578-0.0108-0.0824
	c0.0937-0.0131,0.0973-0.0121,0.1571,0.0054c0.0091-0.0083,0.0212-0.0194,0.0303-0.0278c-0.0226-0.0614-0.0223-0.1273-0.0378-0.1901
	c-0.0026-0.0123-0.0061-0.0287-0.0088-0.041c0.0939-0.0352,0.6816,0.2841,0.8595,0.3828c0.0327,0.0181,0.0787,0.0379,0.1129,0.053
	c0.0266,0.0225,0.0617,0.0528,0.0878,0.0758c0.0369,0.0349,0.0453,0.0444,0.0536,0.0539c0.0623,0.0947,0.0771,0.1172-0.0484,0.2436
	l0.0127,0.0284l0.0264,0.0277c0.0426,0.0154,0.0683,0.0247,0.2219,0.0655c0.0054-0.0078,0.0126-0.0182,0.018-0.026l-0.0297-0.0458
	c-0.0617-0.0683-0.0617-0.0683-0.0832-0.1118c0.0283-0.0761-0.0973-0.2651-0.2081-0.3453
	c-0.0199-0.0213-0.0449-0.0512-0.0622-0.0747c0.0116-0.0058,0.0271-0.0134,0.0386-0.0192c0.0112,0.0055,0.026,0.0127,0.0372,0.0182
	c0.0032-0.0029,0.0076-0.0069,0.0109-0.0098c-0.0902-0.1276-0.2545-0.1196-0.3696-0.2016
	c-0.0978,0.0168-0.5062-0.1987-0.6526-0.3884c-0.0003-0.013-0.0008-0.0303-0.0012-0.0433c0.0062,0.0017,0.0144,0.0039,0.0206,0.0056
	c0.2039,0.1668,0.5686,0.2452,0.5722,0.2459c0.2137,0.0439,0.3208,0.2411,0.4938,0.3434c0.0821,0.0862,0.1964,0.1277,0.2853,0.2045
	c0.0096,0.0106,0.0175,0.0194,0.0254,0.0282l0.029,0.0313c0.0578,0.0283,0.1037,0.0744,0.159,0.1063
	c0.0132-0.001,0.0308-0.0024,0.044-0.0034c-0.0182-0.0749-0.0777-0.1241-0.1164-0.1862c0.0006-0.0251-0.0076-0.0592-0.0192-0.0815
	c-0.0686-0.0596-0.0686-0.0596-0.1479-0.0958c-0.1661-0.1139-0.1682-0.1159-0.2036-0.1496l-0.0123-0.0146
	c0.0025-0.0101,0.0282,0.0034,0.0282,0.0034c0.0027-0.0131,0.0062-0.0306,0.0089-0.0436c-0.0561-0.0694-0.0561-0.0694-0.0608-0.0873
	c0.0003-0.0132,0.0006-0.0309,0.0009-0.0441c0.0164-0.0019,0.0164-0.0019,0.2997,0.2331l0.0074-0.0156
	c0.0129,0.0009,0.0389,0.0286,0.0389,0.0286c0.0092,0.0222,0.0208,0.0521,0.0283,0.075l0.0261,0.023l0.0349,0.0095l0.0284,0.0103
	c0.0361,0.0429,0.0469,0.0558,0.1815,0.1321c0.0101-0.0071,0.0235-0.0167,0.0336-0.0238c0.0186,0.0102,0.0434,0.0239,0.0619,0.0341
	c0.0069-0.0482,0.0069-0.0482-0.0393-0.1339c0.0257-0.0051,0.0631,0.002,0.0859,0.0148c0.1965,0.2112,0.3831,0.4327,0.562,0.6606
	c-0.0099,0.0051-0.0206,0.0108-0.0295,0.0154c-0.003,0.0498-0.003,0.0498,0.0214,0.1378c-0.1373,0.0901-0.1723,0.0818-0.3666,0.0358
	c-0.1945,0.1318,0.1064,0.3147,0.1595,0.4721c-0.0003,0.0128-0.0006,0.03-0.0009,0.0428c-0.0199-0.0046-0.0465-0.0107-0.0664-0.0152
	c-0.2027-0.0982-0.4273-0.0837-0.6411-0.1249c-0.1689-0.0938-0.2456-0.2734-0.3751-0.4038
	c-0.0409-0.0751-0.0409-0.0751-0.0859-0.1185c-0.026,0.0028-0.0621-0.0033-0.086-0.0139c-0.4461,0.3945-0.4461,0.3945-0.5781,0.6926
	l-0.3267,0.0236c-0.0128-0.0051-0.0298-0.0118-0.0425-0.0169c-0.0066,0.013-0.0207,0.0287-0.0222,0.0432
	c-0.0096,0.0949,0.072,0.167,0.0654,0.2611c-0.0078,0.111-0.1083,0.1901-0.105,0.305c0.0005,0.0162,0.088,0.3259,0.0889,0.3274
	c0.0622,0.1091,0.0832,0.1458,0.0414,0.3469c-0.3131,0.5744-0.3302,1.2661-0.3303,1.2729c-0.004,0.3236,0.2847,0.5436,0.3039,0.859
	c0.0137,0.1286-0.0545,0.2509-0.0298,0.3803c0.0988,0.1067,0.0988,0.1067,0.1193,0.1383c0.0341,0.2063,0.0468,0.2834,0.2495,0.3128
	c0.0262,0.0026,0.0259,0.001,0.0255-0.0006c0.0045-0.0086,0.0032,0.0042,0.0032,0.0042c0.0772,0.1768,0.2782,0.2154,0.3939,0.3506
	c0.1347,0.3885,0.8222,0.6078,0.9499,0.5784c0.1112-0.1078,0.3183-0.3086,0.5664-0.2746c0.2828-0.0694,0.278-0.4582,0.572-0.515
	c0.1315,0.0495,0.158,0.3322,0.326,0.2411c0.1385-0.1269,0.1385-0.1269,0.1717-0.1378c0.0174,0.018,0.0407,0.0421,0.0581,0.0601
	c0.1453,0.1629,0.1139,0.7284,0.1061,0.8401l0.0053,0.0178c0.1485,0.3748,0.4404,0.6926,0.4467,1.1239
	c-0.0003,0.7465-0.0003,0.7465-0.1158,1.2257c-0.0877,0.3636,0.0542,0.7228,0.0203,1.0854
	c-0.0805,0.8605-0.1137,1.2167-0.2695,1.5936c-0.0077,0.0351-0.0077,0.0351-0.0471,0.1641c0.0081,0.0118,0.0189,0.0275,0.027,0.0392
	c0.0054-0.0056,0.0126-0.013,0.018-0.0186c0.0364-0.0557,0.0811-0.1167,0.1213-0.1697
	C52.65,41.6099,48.8638,44.2278,44.4751,44.2278z"/>
</svg>
