<?xml version="1.0" encoding="utf-8"?>
<!-- Generator: Adobe Illustrator 23.0.1, SVG Export Plug-In . SVG Version: 6.00 Build 0)  -->
<svg version="1.1" id="Layer_1" xmlns="http://www.w3.org/2000/svg" xmlns:xlink="http://www.w3.org/1999/xlink" x="0px" y="0px"
	 width="72px" height="72px" viewBox="0 0 72 72" style="enable-background:new 0 0 72 72;" xml:space="preserve">
<style type="text/css">
	.st0{fill:none;}
	.st1{fill:#515050;}
	.st2{fill:#999999;}
	.st3{fill:#FFFFFF;stroke:#515050;stroke-width:1.7032;stroke-miterlimit:10;}
	.st4{fill:none;stroke:#515050;stroke-width:1.7032;stroke-miterlimit:10;}
</style>
<line class="st0" x1="13.1103" y1="27.352" x2="20.7316" y2="27.352"/>
<path class="st1" d="M46.1783,8.9714H25.8214c-2.6453,0-4.7898,2.1445-4.7898,4.79v37.4386v0.9404v6.2979
	c0,2.5352,2.0552,4.5903,4.5903,4.5903H46.378c2.5352,0,4.5903-2.0552,4.5903-4.5903v-6.855v-0.3833V13.7615
	C50.9684,11.116,48.8238,8.9714,46.1783,8.9714z M48.9261,51.2001v2.0359h0.0046v0.418c0.0007,0,0.0012-0.0002,0.0017-0.0002v4.7847
	c0,1.4084-1.146,2.5544-2.5544,2.5544H25.6219c-1.4087,0-2.5544-1.146-2.5544-2.5544v-4.7808h0.0017V53.236h0.0059v-2.036h-0.0076
	V13.7615c0-1.5186,1.2354-2.7542,2.7539-2.7542h3.5447c-0.0229,0.0559-0.0364,0.1167-0.0364,0.1809v0.6382
	c0,0.2644,0.2144,0.4788,0.4788,0.4788h12.3828c0.2646,0,0.4788-0.2144,0.4788-0.4788v-0.6382c0-0.0642-0.0134-0.125-0.0364-0.1809
	h3.5447c1.5186,0,2.7542,1.2356,2.7542,2.7542v37.4385H48.9261z"/>
<circle class="st1" cx="36" cy="56.1136" r="1.7234"/>
<ellipse class="st2" cx="36" cy="45.573" rx="3.3443" ry="1.3282"/>
<path class="st3" d="M36,42.1328c-4.2581-5.9613-5.9613-7.6645-5.9613-11.071c0-3.2917,2.6713-5.9613,5.9613-5.963
	c3.29,0.0017,5.9613,2.6713,5.9613,5.9613C41.9612,34.4683,40.258,36.1715,36,42.1328z"/>
<path class="st4" d="M36,33.6167c-1.4105,0-2.5548-1.146-2.5548-2.5548c0-1.4105,1.1443-2.5548,2.5556-2.5565
	c1.4105,0.0017,2.5541,1.146,2.5541,2.5548C38.5548,32.4706,37.4112,33.6167,36,33.6167z"/>
</svg>
