<?xml version="1.0" encoding="utf-8"?>
<!-- Generator: Adobe Illustrator 23.0.1, SVG Export Plug-In . SVG Version: 6.00 Build 0)  -->
<svg version="1.1" id="Layer_1" xmlns="http://www.w3.org/2000/svg" xmlns:xlink="http://www.w3.org/1999/xlink" x="0px" y="0px"
	 width="72px" height="72px" viewBox="0 0 72 72" style="enable-background:new 0 0 72 72;" xml:space="preserve">
<style type="text/css">
	.st0{fill:#E1006E;}
	.st1{fill:#82BB25;}
	.st2{fill:#FFB125;}
	.st3{fill:#FFFFFF;}
</style>
<path class="st0" d="M46.178,8.971H25.821c-2.645,0-4.79,2.145-4.79,4.79V51.2v0.94v6.298c0,2.535,2.055,4.59,4.59,4.59h20.756
	c2.535,0,4.59-2.055,4.59-4.59v-6.855V51.2V13.761C50.968,11.116,48.824,8.971,46.178,8.971z M48.926,51.2v2.036h0.005v0.418
	c0.001,0,0.001,0,0.002,0v4.785c0,1.408-1.146,2.554-2.554,2.554H25.622c-1.409,0-2.554-1.146-2.554-2.554v-4.781h0.002v-0.422
	h0.006V51.2h-0.008V13.761c0-1.519,1.235-2.754,2.754-2.754h3.545c-0.023,0.056-0.036,0.117-0.036,0.181v0.638
	c0,0.264,0.214,0.479,0.479,0.479h12.383c0.265,0,0.479-0.214,0.479-0.479v-0.638c0-0.064-0.013-0.125-0.036-0.181h3.545
	c1.519,0,2.754,1.236,2.754,2.754V51.2H48.926z"/>
<circle class="st0" cx="36" cy="56.114" r="1.723"/>
<path class="st1" d="M26.438,22.197V17.94c0-0.352,0.285-0.637,0.637-0.637h9.151c0.352,0,0.637,0.285,0.637,0.637v4.256
	c0,0.352-0.285,0.637-0.637,0.637h-9.151C26.724,22.834,26.438,22.549,26.438,22.197z"/>
<path class="st2" d="M27.801,17.463h2.313c0.151,0,0.273-0.173,0.273-0.386c0-0.213-0.122-0.386-0.273-0.386h-2.313
	c-0.151,0-0.273,0.173-0.273,0.386C27.528,17.29,27.65,17.463,27.801,17.463z"/>
<path class="st1" d="M34.676,33.617v-4.863c0-0.402,0.326-0.728,0.728-0.728h10.455c0.402,0,0.728,0.326,0.728,0.728v4.863
	c0,0.402-0.326,0.728-0.728,0.728H35.404C35.002,34.344,34.676,34.019,34.676,33.617z"/>
<path class="st2" d="M39.864,28.18h2.643c0.172,0,0.312-0.197,0.312-0.441c0-0.243-0.14-0.441-0.312-0.441h-2.643
	c-0.172,0-0.312,0.197-0.312,0.441C39.552,27.983,39.692,28.18,39.864,28.18z"/>
<path class="st2" d="M34.25,38.708h2.791c0.182,0,0.329-0.208,0.329-0.466c0-0.257-0.147-0.466-0.329-0.466H34.25
	c-0.182,0-0.329,0.208-0.329,0.466C33.92,38.499,34.068,38.708,34.25,38.708z"/>
<path class="st1" d="M25.414,44.54v-5.136c0-0.424,0.344-0.769,0.769-0.769h11.042c0.424,0,0.769,0.344,0.769,0.769v5.136
	c0,0.424-0.344,0.769-0.769,0.769H26.183C25.758,45.309,25.414,44.964,25.414,44.54z"/>
<path class="st3" d="M28.433,21.07c-0.027,0-0.037-0.016-0.037-0.046v-2.003c0-0.031,0.013-0.046,0.04-0.046h0.623
	c0.509,0,0.669,0.203,0.669,0.45v1.196c0,0.247-0.16,0.45-0.669,0.45H28.433z M28.611,19.163v1.72h0.447
	c0.33,0,0.45-0.117,0.45-0.296v-1.128c0-0.179-0.12-0.296-0.45-0.296H28.611z"/>
<path class="st3" d="M30.891,19.021l0.617,2.003c0.009,0.031-0.004,0.046-0.037,0.046h-0.133c-0.031,0-0.046-0.016-0.056-0.046
	l-0.169-0.548h-0.706l-0.167,0.548c-0.009,0.031-0.021,0.046-0.052,0.046h-0.124c-0.03,0-0.043-0.016-0.033-0.046l0.613-2.003
	c0.009-0.031,0.024-0.046,0.059-0.046h0.133C30.866,18.975,30.882,18.99,30.891,19.021z M30.842,19.579
	c-0.031-0.099-0.071-0.339-0.077-0.373c-0.003,0.021-0.04,0.25-0.077,0.367L30.459,20.3h0.607L30.842,19.579z"/>
<path class="st3" d="M32.075,21.024c0,0.031-0.009,0.046-0.043,0.046h-0.13c-0.03,0-0.043-0.016-0.043-0.046v-2.003
	c0-0.031,0.013-0.046,0.043-0.046h0.13c0.034,0,0.043,0.015,0.043,0.046V21.024z"/>
<path class="st3" d="M32.856,20.882h0.863c0.031,0,0.043,0.012,0.043,0.043v0.099c0,0.034-0.012,0.046-0.043,0.046h-1.045
	c-0.024,0-0.037-0.016-0.037-0.046v-2.003c0-0.031,0.013-0.046,0.043-0.046h0.133c0.031,0,0.043,0.015,0.043,0.046V20.882z"/>
<path class="st3" d="M34.343,19.915c0.028,0.059,0.043,0.111,0.046,0.117c0-0.006,0.028-0.08,0.047-0.117l0.469-0.894
	c0.012-0.024,0.024-0.046,0.055-0.046h0.13c0.031,0,0.046,0.015,0.031,0.046l-0.62,1.196v0.808c0,0.031-0.013,0.046-0.046,0.046
	h-0.13c-0.03,0-0.046-0.016-0.046-0.046v-0.783l-0.623-1.221c-0.016-0.031,0-0.046,0.031-0.046h0.147
	c0.031,0,0.044,0.018,0.056,0.046L34.343,19.915z"/>
<path class="st3" d="M28.31,42.625c0,0.025-0.011,0.037-0.038,0.037H28.17c-0.028,0-0.038-0.012-0.038-0.037v-1.308
	c-0.01,0.044-0.033,0.116-0.051,0.157l-0.367,0.887c-0.01,0.025-0.025,0.038-0.051,0.038H27.57c-0.025,0-0.038-0.013-0.048-0.038
	l-0.383-0.91c-0.01-0.021-0.027-0.075-0.043-0.131v1.305c0,0.025-0.01,0.037-0.035,0.037h-0.097c-0.027,0-0.038-0.012-0.038-0.037
	v-1.646c0-0.025,0.011-0.038,0.038-0.038h0.097c0.018,0,0.027,0.007,0.033,0.021l0.479,1.119c0.025,0.061,0.043,0.119,0.046,0.129
	c0.002-0.008,0.027-0.078,0.048-0.127l0.469-1.121c0.005-0.016,0.018-0.021,0.035-0.021h0.102c0.027,0,0.038,0.013,0.038,0.038
	V42.625z"/>
<path class="st3" d="M28.741,41.289c0-0.202,0.132-0.369,0.547-0.369c0.421,0,0.55,0.167,0.55,0.369v1.023
	c0,0.203-0.129,0.37-0.55,0.37c-0.415,0-0.547-0.167-0.547-0.37V41.289z M29.658,41.317c0-0.146-0.102-0.243-0.37-0.243
	c-0.266,0-0.367,0.097-0.367,0.243v0.968c0,0.146,0.102,0.243,0.367,0.243c0.269,0,0.37-0.097,0.37-0.243V41.317z"/>
<path class="st3" d="M31.363,42.625c0,0.025-0.008,0.037-0.035,0.037h-0.097c-0.018,0-0.027-0.004-0.035-0.018l-0.672-1.189
	c-0.056-0.098-0.083-0.158-0.086-0.166v1.336c0,0.025-0.01,0.037-0.035,0.037h-0.097c-0.027,0-0.038-0.012-0.038-0.037v-1.646
	c0-0.025,0.011-0.038,0.038-0.038h0.097c0.018,0,0.025,0.005,0.03,0.015l0.687,1.209c0.021,0.035,0.076,0.151,0.076,0.151v-1.337
	c0-0.025,0.01-0.038,0.035-0.038h0.097c0.027,0,0.035,0.013,0.035,0.038V42.625z"/>
<path class="st3" d="M32.734,40.94c0.025,0,0.038,0.01,0.038,0.038v0.078c0,0.027-0.013,0.038-0.038,0.038h-0.437v1.53
	c0,0.025-0.01,0.037-0.035,0.037h-0.108c-0.028,0-0.038-0.012-0.038-0.037v-1.53H31.68c-0.028,0-0.038-0.011-0.038-0.038v-0.078
	c0-0.028,0.01-0.038,0.038-0.038H32.734z"/>
<path class="st3" d="M33.23,41.675h0.736v-0.696c0-0.025,0.011-0.038,0.036-0.038h0.108c0.025,0,0.036,0.013,0.036,0.038v1.646
	c0,0.025-0.011,0.037-0.036,0.037h-0.108c-0.025,0-0.036-0.012-0.036-0.037v-0.799H33.23v0.799c0,0.025-0.008,0.037-0.036,0.037
	h-0.106c-0.025,0-0.035-0.012-0.035-0.037v-1.646c0-0.025,0.01-0.038,0.035-0.038h0.106c0.028,0,0.036,0.013,0.036,0.038V41.675z"/>
<path class="st3" d="M34.79,42.508h0.709c0.025,0,0.036,0.01,0.036,0.035v0.082c0,0.027-0.011,0.037-0.036,0.037H34.64
	c-0.021,0-0.03-0.012-0.03-0.037v-1.646c0-0.025,0.01-0.038,0.035-0.038h0.109c0.025,0,0.035,0.013,0.035,0.038V42.508z"/>
<path class="st3" d="M36.013,41.713c0.022,0.048,0.035,0.091,0.038,0.096c0-0.005,0.022-0.065,0.038-0.096l0.385-0.734
	c0.01-0.021,0.021-0.038,0.046-0.038h0.106c0.024,0,0.037,0.013,0.024,0.038l-0.509,0.982v0.664c0,0.025-0.01,0.037-0.038,0.037
	h-0.106c-0.025,0-0.038-0.012-0.038-0.037v-0.644l-0.512-1.003c-0.012-0.025,0-0.038,0.025-0.038h0.122
	c0.025,0,0.035,0.015,0.046,0.038L36.013,41.713z"/>
<path class="st3" d="M37.658,31.701c0.021,0.089,0.04,0.192,0.043,0.213c0-0.013,0.011-0.089,0.043-0.213l0.324-1.269
	c0.008-0.027,0.019-0.041,0.049-0.041h0.1c0.027,0,0.038,0.013,0.03,0.041l-0.446,1.755c-0.008,0.027-0.021,0.041-0.048,0.041
	h-0.114c-0.026,0-0.04-0.014-0.048-0.041l-0.327-1.291c-0.021-0.081-0.032-0.167-0.035-0.187c-0.003,0.017-0.021,0.119-0.038,0.189
	l-0.326,1.288c-0.009,0.027-0.021,0.041-0.052,0.041H36.7c-0.024,0-0.038-0.014-0.046-0.041l-0.445-1.755
	c-0.009-0.027,0.002-0.041,0.032-0.041h0.116c0.026,0,0.037,0.013,0.046,0.041l0.321,1.269c0.019,0.076,0.043,0.2,0.043,0.2
	s0.014-0.084,0.043-0.2l0.324-1.269c0.009-0.027,0.02-0.041,0.049-0.041h0.108c0.026,0,0.037,0.013,0.046,0.041L37.658,31.701z"/>
<path class="st3" d="M38.595,32.228c-0.024,0-0.035-0.014-0.035-0.041v-1.755c0-0.027,0.011-0.041,0.037-0.041h0.921
	c0.027,0,0.041,0.011,0.041,0.041v0.083c0,0.03-0.014,0.041-0.041,0.041h-0.77v0.629h0.722c0.029,0,0.04,0.011,0.04,0.041v0.078
	c0,0.03-0.011,0.041-0.04,0.041h-0.722v0.719h0.803c0.026,0,0.04,0.011,0.04,0.038v0.086c0,0.03-0.014,0.041-0.04,0.041H38.595z"/>
<path class="st3" d="M40.013,32.228c-0.024,0-0.035-0.014-0.035-0.041v-1.755c0-0.027,0.011-0.041,0.037-0.041h0.921
	c0.027,0,0.041,0.011,0.041,0.041v0.083c0,0.03-0.014,0.041-0.041,0.041h-0.77v0.629h0.722c0.029,0,0.04,0.011,0.04,0.041v0.078
	c0,0.03-0.011,0.041-0.04,0.041h-0.722v0.719h0.803c0.026,0,0.04,0.011,0.04,0.038v0.086c0,0.03-0.014,0.041-0.04,0.041H40.013z"/>
<path class="st3" d="M42.578,32.188c0.017,0.019,0.006,0.041-0.019,0.041h-0.151c-0.03,0-0.046-0.019-0.063-0.041l-0.678-0.805
	h-0.084v0.805c0,0.027-0.008,0.041-0.037,0.041h-0.114c-0.029,0-0.04-0.014-0.04-0.041v-1.755c0-0.027,0.011-0.041,0.04-0.041h0.114
	c0.029,0,0.037,0.013,0.037,0.041v0.805h0.084l0.624-0.808c0.016-0.021,0.038-0.038,0.067-0.038h0.124
	c0.027,0,0.038,0.016,0.02,0.041l-0.673,0.864L42.578,32.188z"/>
<path class="st3" d="M43.072,32.063h0.756c0.027,0,0.038,0.011,0.038,0.038v0.086c0,0.03-0.011,0.041-0.038,0.041h-0.915
	c-0.021,0-0.032-0.014-0.032-0.041v-1.755c0-0.027,0.011-0.041,0.037-0.041h0.116c0.027,0,0.038,0.013,0.038,0.041V32.063z"/>
<path class="st3" d="M44.377,31.215c0.024,0.051,0.038,0.097,0.04,0.103c0-0.005,0.024-0.07,0.041-0.103l0.41-0.783
	c0.011-0.022,0.021-0.041,0.049-0.041h0.113c0.027,0,0.041,0.013,0.027,0.041l-0.543,1.048v0.708c0,0.027-0.011,0.041-0.041,0.041
	H44.36c-0.026,0-0.04-0.014-0.04-0.041v-0.686l-0.546-1.069c-0.014-0.027,0-0.041,0.027-0.041h0.129
	c0.027,0,0.038,0.016,0.049,0.041L44.377,31.215z"/>
</svg>
