<?xml version="1.0" encoding="utf-8"?>
<!-- Generator: Adobe Illustrator 23.0.1, SVG Export Plug-In . SVG Version: 6.00 Build 0)  -->
<svg version="1.1" id="Layer_1" xmlns="http://www.w3.org/2000/svg" xmlns:xlink="http://www.w3.org/1999/xlink" x="0px" y="0px"
	 width="72px" height="72px" viewBox="0 0 72 72" style="enable-background:new 0 0 72 72;" xml:space="preserve">
<style type="text/css">
	.st0{fill:#515050;}
	.st1{fill:#FFFFFF;}
	.st2{fill:none;}
</style>
<path class="st0" d="M46.1783,8.9714H25.8214c-2.6453,0-4.7898,2.1445-4.7898,4.79V51.2v0.9404v6.2979
	c0,2.5352,2.0552,4.5903,4.5903,4.5903H46.378c2.5352,0,4.5903-2.0552,4.5903-4.5903v-6.855V51.2V13.7615
	C50.9684,11.116,48.8239,8.9714,46.1783,8.9714z M48.9261,51.2v2.0359h0.0046v0.418c0.0007,0,0.0012-0.0002,0.0017-0.0002v4.7847
	c0,1.4084-1.146,2.5544-2.5544,2.5544H25.6219c-1.4087,0-2.5544-1.146-2.5544-2.5544v-4.7808h0.0017V53.236h0.0059V51.2h-0.0076
	V13.7615c0-1.5186,1.2354-2.7542,2.7539-2.7542h3.5447c-0.0229,0.0559-0.0364,0.1167-0.0364,0.1809v0.6382
	c0,0.2644,0.2144,0.4788,0.4788,0.4788h12.3828c0.2646,0,0.4788-0.2144,0.4788-0.4788v-0.6382c0-0.0642-0.0134-0.125-0.0364-0.1809
	h3.5447c1.5186,0,2.7542,1.2356,2.7542,2.7542V51.2H48.9261z"/>
<circle class="st0" cx="36" cy="56.1136" r="1.7234"/>
<path class="st0" d="M25.1503,34.4577H9.5221c-1.5689,0-2.8453-1.2763-2.8453-2.8452V20.9931c0-1.5689,1.2764-2.8452,2.8453-2.8452
	h15.6282c1.5689,0,2.8453,1.2763,2.8453,2.8452v1.7324l6.97,2.7403c0.3457,0.1358,0.5722,0.4703,0.5703,0.8416
	c-0.002,0.3714-0.2321,0.7034-0.5791,0.8357l-6.9612,2.6524v1.817C27.9956,33.1814,26.7192,34.4577,25.1503,34.4577z"/>
<path class="st1" d="M9.5221,19.9465c-0.5771,0-1.0466,0.4695-1.0466,1.0466v10.6195c0,0.5771,0.4694,1.0466,1.0466,1.0466h15.6282
	c0.5772,0,1.0466-0.4695,1.0466-1.0466v-2.4367c0-0.3732,0.2305-0.7075,0.5791-0.8404l5.3692-2.0458l-5.378-2.1144
	c-0.3441-0.1353-0.5703-0.4673-0.5703-0.837v-2.3452c0-0.5771-0.4694-1.0466-1.0466-1.0466
	C25.1503,19.9465,9.5221,19.9465,9.5221,19.9465z"/>
<path class="st0" d="M20.7316,24.7241h-7.6212c-0.4967,0-0.8994-0.4026-0.8994-0.8993s0.4026-0.8993,0.8994-0.8993h7.6212
	c0.4967,0,0.8994,0.4026,0.8994,0.8993S21.2283,24.7241,20.7316,24.7241z"/>
<line class="st2" x1="13.1103" y1="27.352" x2="20.7316" y2="27.352"/>
<path class="st0" d="M20.7316,28.2513h-7.6212c-0.4967,0-0.8994-0.4026-0.8994-0.8993s0.4026-0.8993,0.8994-0.8993h7.6212
	c0.4967,0,0.8994,0.4026,0.8994,0.8993C21.631,27.8487,21.2283,28.2513,20.7316,28.2513z"/>
<path class="st0" d="M44.0044,46.9317v-1.817l-6.9612-2.6524c-0.347-0.1322-0.5772-0.4643-0.5791-0.8357
	c-0.0019-0.3714,0.2247-0.7058,0.5703-0.8416l6.97-2.7403v-1.7324c0-1.5689,1.2764-2.8452,2.8453-2.8452h15.6282
	c1.5689,0,2.8453,1.2763,2.8453,2.8452v10.6195c0,1.5689-1.2764,2.8452-2.8453,2.8452H46.8497
	C45.2808,49.7769,44.0044,48.5006,44.0044,46.9317z"/>
<path class="st1" d="M46.8497,35.2657c-0.5772,0-1.0466,0.4695-1.0466,1.0466v2.3452c0,0.3697-0.2263,0.7017-0.5703,0.837
	l-5.378,2.1144l5.3692,2.0458c0.3486,0.1329,0.5791,0.4672,0.5791,0.8404v2.4367c0,0.5771,0.4694,1.0466,1.0466,1.0466h15.6282
	c0.5772,0,1.0466-0.4695,1.0466-1.0466V36.3122c0-0.5771-0.4694-1.0466-1.0466-1.0466L46.8497,35.2657L46.8497,35.2657z"/>
<path class="st0" d="M51.2684,40.0432h7.6212c0.4967,0,0.8994-0.4026,0.8994-0.8993s-0.4026-0.8993-0.8994-0.8993h-7.6212
	c-0.4967,0-0.8994,0.4026-0.8994,0.8993S50.7717,40.0432,51.2684,40.0432z"/>
<path class="st0" d="M51.2684,43.5705h7.6212c0.4967,0,0.8994-0.4026,0.8994-0.8993s-0.4026-0.8993-0.8994-0.8993h-7.6212
	c-0.4967,0-0.8994,0.4026-0.8994,0.8993S50.7717,43.5705,51.2684,43.5705z"/>
</svg>
