<?xml version="1.0" encoding="utf-8"?>
<!-- Generator: Adobe Illustrator 23.0.1, SVG Export Plug-In . SVG Version: 6.00 Build 0)  -->
<svg version="1.1" id="Layer_1" xmlns="http://www.w3.org/2000/svg" xmlns:xlink="http://www.w3.org/1999/xlink" x="0px" y="0px"
	 width="72px" height="72px" viewBox="0 0 72 72" style="enable-background:new 0 0 72 72;" xml:space="preserve">
<style type="text/css">
	.st0{fill:#515050;}
	.st1{fill:#FFFFFF;}
	.st2{fill:#E1006E;}
	.st3{fill:#FFB125;}
	.st4{fill:#82BB25;}
</style>
<path class="st0" d="M25.1503,34.4577H9.5221c-1.5689,0-2.8453-1.2763-2.8453-2.8452V20.9931c0-1.5689,1.2764-2.8452,2.8453-2.8452
	h15.6282c1.5689,0,2.8453,1.2763,2.8453,2.8452v1.7324l6.97,2.7403c0.3457,0.1358,0.5722,0.4703,0.5703,0.8416
	c-0.002,0.3714-0.2321,0.7034-0.5791,0.8357l-6.9612,2.6524v1.817C27.9956,33.1814,26.7192,34.4577,25.1503,34.4577z"/>
<path class="st1" d="M9.5221,19.9465c-0.5771,0-1.0466,0.4695-1.0466,1.0466v10.6195c0,0.5771,0.4694,1.0466,1.0466,1.0466h15.6282
	c0.5772,0,1.0466-0.4695,1.0466-1.0466v-2.4367c0-0.3732,0.2305-0.7075,0.5791-0.8404l5.3692-2.0458l-5.378-2.1144
	c-0.3441-0.1353-0.5703-0.4673-0.5703-0.837v-2.3452c0-0.5771-0.4694-1.0466-1.0466-1.0466H9.5221z"/>
<path class="st0" d="M20.7316,24.7241h-7.6212c-0.4967,0-0.8994-0.4026-0.8994-0.8993s0.4026-0.8993,0.8994-0.8993h7.6212
	c0.4967,0,0.8994,0.4026,0.8994,0.8993S21.2283,24.7241,20.7316,24.7241z"/>
<path class="st0" d="M20.7316,28.2513h-7.6212c-0.4967,0-0.8994-0.4026-0.8994-0.8993s0.4026-0.8993,0.8994-0.8993h7.6212
	c0.4967,0,0.8994,0.4026,0.8994,0.8993C21.631,27.8487,21.2283,28.2513,20.7316,28.2513z"/>
<path class="st2" d="M46.1784,8.9714H25.8214c-2.6453,0-4.7898,2.1445-4.7898,4.79v37.4385v0.9404v6.2979
	c0,2.5352,2.0552,4.5903,4.5903,4.5903h20.7561c2.5352,0,4.5903-2.0552,4.5903-4.5903v-6.855v-0.3833V13.7614
	C50.9684,11.1159,48.8239,8.9714,46.1784,8.9714z"/>
<path class="st1" d="M48.9262,51.1999v2.0359h0.0046v0.418c0.0007,0,0.0012-0.0002,0.0017-0.0002v4.7847
	c0,1.4084-1.146,2.5544-2.5544,2.5544H25.622c-1.4087,0-2.5544-1.146-2.5544-2.5544v-4.7808h0.0017v-0.4216h0.0059v-2.0359h-0.0076
	V13.7614c0-1.5186,1.2354-2.7542,2.7539-2.7542h3.5447c-0.0229,0.0559-0.0364,0.1167-0.0364,0.1809v0.6382
	c0,0.2644,0.2144,0.4788,0.4788,0.4788h12.3828c0.2646,0,0.4788-0.2144,0.4788-0.4788v-0.6382c0-0.0642-0.0134-0.125-0.0364-0.1809
	h3.5447c1.5186,0,2.7542,1.2356,2.7542,2.7542v37.4385H48.9262z"/>
<circle class="st2" cx="36" cy="56.1136" r="1.7234"/>
<path class="st3" d="M46.2557,46.9317v-1.817l-6.9612-2.6524c-0.347-0.1322-0.5772-0.4643-0.5791-0.8357
	c-0.0019-0.3714,0.2247-0.7058,0.5703-0.8416l6.97-2.7403v-1.7324c0-1.5689,1.2764-2.8452,2.8453-2.8452h15.6282
	c1.5689,0,2.8453,1.2763,2.8453,2.8452v10.6195c0,1.5689-1.2764,2.8452-2.8453,2.8452H49.101
	C47.5321,49.7768,46.2557,48.5005,46.2557,46.9317z"/>
<path class="st1" d="M49.101,35.2656c-0.5771,0-1.0466,0.4695-1.0466,1.0466v2.3452c0,0.3697-0.2263,0.7017-0.5703,0.837
	l-5.378,2.1144l5.3692,2.0458c0.3486,0.1329,0.5791,0.4672,0.5791,0.8404v2.4367c0,0.5771,0.4694,1.0466,1.0466,1.0466h15.6282
	c0.5771,0,1.0466-0.4695,1.0466-1.0466V36.3122c0-0.5771-0.4694-1.0466-1.0466-1.0466H49.101z"/>
<path class="st4" d="M53.5197,40.0432h7.6212c0.4967,0,0.8994-0.4026,0.8994-0.8993s-0.4026-0.8993-0.8994-0.8993h-7.6212
	c-0.4967,0-0.8994,0.4026-0.8994,0.8993S53.023,40.0432,53.5197,40.0432z"/>
<path class="st4" d="M53.5197,43.5704h7.6212c0.4967,0,0.8994-0.4026,0.8994-0.8993c0-0.4967-0.4026-0.8993-0.8994-0.8993h-7.6212
	c-0.4967,0-0.8994,0.4026-0.8994,0.8993C52.6204,43.1678,53.023,43.5704,53.5197,43.5704z"/>
<path class="st3" d="M25.1503,34.4577H9.5221c-1.5689,0-2.8453-1.2763-2.8453-2.8452V20.9931c0-1.5689,1.2764-2.8452,2.8453-2.8452
	h15.6282c1.5689,0,2.8453,1.2763,2.8453,2.8452v1.7324l6.97,2.7403c0.3457,0.1358,0.5722,0.4703,0.5703,0.8416
	c-0.002,0.3714-0.2321,0.7034-0.5791,0.8357l-6.9612,2.6524v1.817C27.9956,33.1814,26.7192,34.4577,25.1503,34.4577z"/>
<path class="st1" d="M9.5221,19.9465c-0.5771,0-1.0466,0.4695-1.0466,1.0466v10.6195c0,0.5771,0.4694,1.0466,1.0466,1.0466h15.6282
	c0.5772,0,1.0466-0.4695,1.0466-1.0466v-2.4367c0-0.3732,0.2305-0.7075,0.5791-0.8404l5.3692-2.0458l-5.378-2.1144
	c-0.3441-0.1353-0.5703-0.4673-0.5703-0.837v-2.3452c0-0.5771-0.4694-1.0466-1.0466-1.0466H9.5221z"/>
<path class="st4" d="M20.7316,24.7241h-7.6212c-0.4967,0-0.8994-0.4026-0.8994-0.8993c0-0.4967,0.4026-0.8993,0.8994-0.8993h7.6212
	c0.4967,0,0.8994,0.4026,0.8994,0.8993C21.6309,24.3214,21.2283,24.7241,20.7316,24.7241z"/>
<path class="st4" d="M20.7316,28.2513h-7.6212c-0.4967,0-0.8994-0.4026-0.8994-0.8993s0.4026-0.8993,0.8994-0.8993h7.6212
	c0.4967,0,0.8994,0.4026,0.8994,0.8993S21.2283,28.2513,20.7316,28.2513z"/>
</svg>
