<?xml version="1.0" encoding="utf-8"?>
<!-- Generator: Adobe Illustrator 23.0.1, SVG Export Plug-In . SVG Version: 6.00 Build 0)  -->
<svg version="1.1" id="Layer_1" xmlns="http://www.w3.org/2000/svg" xmlns:xlink="http://www.w3.org/1999/xlink" x="0px" y="0px"
	 width="72px" height="72px" viewBox="0 0 72 72" style="enable-background:new 0 0 72 72;" xml:space="preserve">
<style type="text/css">
	.st0{fill:#515050;}
</style>
<path class="st0" d="M46.774,9.998H26.417c-2.645,0-4.79,2.145-4.79,4.79v37.438v0.94v6.298c0,2.535,2.055,4.59,4.59,4.59h20.756
	c2.535,0,4.59-2.055,4.59-4.59v-6.855v-0.383V14.788C51.564,12.142,49.42,9.998,46.774,9.998z M49.522,52.226v2.036h0.005v0.418
	c0.001,0,0.001,0,0.002,0v4.785c0,1.408-1.146,2.554-2.554,2.554H26.218c-1.409,0-2.554-1.146-2.554-2.554v-4.781h0.002v-0.422
	h0.006v-2.036h-0.008V14.788c0-1.519,1.235-2.754,2.754-2.754h3.545c-0.023,0.056-0.036,0.117-0.036,0.181v0.638
	c0,0.264,0.214,0.479,0.479,0.479h12.383c0.265,0,0.479-0.214,0.479-0.479v-0.638c0-0.064-0.013-0.125-0.036-0.181h3.545
	c1.519,0,2.754,1.236,2.754,2.754v37.438H49.522z"/>
<circle class="st0" cx="36.596" cy="57.14" r="1.723"/>
<rect x="27.486" y="30.525" class="st0" width="5.425" height="5.425"/>
<rect x="34.511" y="30.525" class="st0" width="5.425" height="5.425"/>
<path class="st0" d="M45.52,33.455l0.169-1.104H44.63v-0.716c0-0.302,0.148-0.596,0.622-0.596h0.482v-0.94
	c0,0-0.437-0.075-0.855-0.075c-0.872,0-1.442,0.529-1.442,1.486v0.841h-0.97v1.104h0.97v2.669h1.193v-2.669H45.52z"/>
<rect x="34.511" y="21.01" class="st0" width="5.425" height="5.425"/>
<rect x="41.388" y="21.01" class="st0" width="5.425" height="5.425"/>
<path class="st0" d="M30.294,22.283c-0.797,0-1.439,0.643-1.439,1.439s0.643,1.439,1.439,1.439c0.797,0,1.439-0.643,1.439-1.439
	S31.091,22.283,30.294,22.283z M30.294,24.658c-0.515,0-0.936-0.42-0.936-0.936c0-0.516,0.42-0.936,0.936-0.936
	c0.516,0,0.936,0.42,0.936,0.936C31.23,24.238,30.809,24.658,30.294,24.658L30.294,24.658z M32.128,22.224
	c0,0.187-0.15,0.336-0.336,0.336c-0.187,0-0.336-0.15-0.336-0.336c0-0.185,0.15-0.336,0.336-0.336S32.128,22.039,32.128,22.224z
	 M33.081,22.565c-0.021-0.45-0.124-0.848-0.453-1.176c-0.328-0.328-0.727-0.431-1.176-0.453c-0.463-0.026-1.853-0.026-2.316,0
	c-0.448,0.021-0.847,0.124-1.176,0.452c-0.329,0.328-0.431,0.727-0.453,1.176c-0.026,0.463-0.026,1.853,0,2.316
	c0.021,0.45,0.124,0.848,0.453,1.176s0.727,0.431,1.176,0.453c0.463,0.026,1.853,0.026,2.316,0c0.45-0.021,0.848-0.124,1.176-0.453
	c0.328-0.328,0.431-0.727,0.453-1.176C33.107,24.416,33.107,23.028,33.081,22.565L33.081,22.565z M32.482,25.377
	c-0.098,0.246-0.287,0.435-0.534,0.534c-0.37,0.147-1.246,0.113-1.655,0.113c-0.408,0-1.287,0.033-1.655-0.113
	c-0.246-0.098-0.435-0.287-0.534-0.534c-0.147-0.37-0.113-1.246-0.113-1.655s-0.033-1.287,0.113-1.655
	c0.098-0.246,0.287-0.435,0.534-0.534c0.37-0.147,1.246-0.113,1.655-0.113c0.408,0,1.287-0.033,1.655,0.113
	c0.246,0.098,0.435,0.287,0.534,0.534c0.147,0.37,0.113,1.246,0.113,1.655S32.629,25.009,32.482,25.377z"/>
<rect x="27.486" y="39.712" class="st0" width="5.425" height="5.425"/>
<rect x="41.388" y="39.712" class="st0" width="5.425" height="5.425"/>
<path class="st0" d="M39.541,41.511c0.004,0.052,0.004,0.104,0.004,0.156c0,1.581-1.203,3.402-3.402,3.402
	c-0.678,0-1.307-0.196-1.836-0.537c0.096,0.011,0.189,0.015,0.289,0.015c0.559,0,1.074-0.189,1.485-0.511
	c-0.526-0.011-0.966-0.355-1.118-0.829c0.074,0.011,0.148,0.019,0.226,0.019c0.107,0,0.215-0.015,0.315-0.041
	c-0.548-0.111-0.959-0.592-0.959-1.174v-0.015c0.159,0.089,0.344,0.144,0.541,0.152c-0.322-0.215-0.533-0.581-0.533-0.996
	c0-0.222,0.059-0.426,0.163-0.603c0.589,0.726,1.474,1.2,2.466,1.251c-0.019-0.089-0.03-0.181-0.03-0.274
	c0-0.659,0.533-1.196,1.196-1.196c0.344,0,0.655,0.144,0.874,0.378c0.27-0.052,0.529-0.152,0.759-0.289
	c-0.089,0.278-0.278,0.511-0.526,0.659c0.241-0.026,0.474-0.093,0.689-0.185C39.978,41.129,39.774,41.34,39.541,41.511
	L39.541,41.511z"/>
</svg>
