<?xml version="1.0" encoding="utf-8"?>
<!-- Generator: Adobe Illustrator 23.0.1, SVG Export Plug-In . SVG Version: 6.00 Build 0)  -->
<svg version="1.1" id="Layer_1" xmlns="http://www.w3.org/2000/svg" xmlns:xlink="http://www.w3.org/1999/xlink" x="0px" y="0px"
	 width="72px" height="72px" viewBox="0 0 72 72" style="enable-background:new 0 0 72 72;" xml:space="preserve">
<style type="text/css">
	.st0{fill:#E1006E;}
	.st1{fill:#FFFFFF;}
	.st2{fill:#FFB125;}
	.st3{fill:#82BB25;}
	.st4{fill:#1877F2;}
	.st5{fill:#FD1D1D;}
	.st6{fill:#1DA1F2;}
</style>
<path class="st0" d="M46.178,8.971H25.821c-2.645,0-4.79,2.145-4.79,4.79V51.2v0.94v6.298c0,2.535,2.055,4.59,4.59,4.59h20.756
	c2.535,0,4.59-2.055,4.59-4.59v-6.855V51.2V13.761C50.968,11.116,48.824,8.971,46.178,8.971z"/>
<path class="st1" d="M48.926,51.2v2.036h0.005v0.418c0.001,0,0.001,0,0.002,0v4.785c0,1.408-1.146,2.554-2.554,2.554H25.622
	c-1.409,0-2.554-1.146-2.554-2.554v-4.781h0.002v-0.422h0.006V51.2h-0.008V13.761c0-1.519,1.235-2.754,2.754-2.754h3.545
	c-0.023,0.056-0.036,0.117-0.036,0.181v0.638c0,0.264,0.214,0.479,0.479,0.479h12.383c0.265,0,0.479-0.214,0.479-0.479v-0.638
	c0-0.064-0.013-0.125-0.036-0.181h3.545c1.519,0,2.754,1.236,2.754,2.754V51.2H48.926z"/>
<circle class="st0" cx="36" cy="56.114" r="1.723"/>
<rect x="26.336" y="29.499" class="st2" width="5.425" height="5.425"/>
<rect x="33.361" y="29.499" class="st3" width="5.425" height="5.425"/>
<path class="st4" d="M44.371,32.429l0.169-1.104h-1.059v-0.716c0-0.302,0.148-0.596,0.622-0.596h0.482v-0.94
	c0,0-0.437-0.075-0.855-0.075c-0.872,0-1.442,0.529-1.442,1.486v0.841h-0.97v1.104h0.97v2.669h1.193v-2.669H44.371z"/>
<rect x="33.361" y="19.984" class="st2" width="5.425" height="5.425"/>
<rect x="40.239" y="19.984" class="st3" width="5.425" height="5.425"/>
<path class="st5" d="M29.145,21.257c-0.797,0-1.439,0.643-1.439,1.439c0,0.797,0.643,1.439,1.439,1.439
	c0.797,0,1.439-0.643,1.439-1.439C30.584,21.9,29.941,21.257,29.145,21.257z M29.145,23.632c-0.515,0-0.936-0.42-0.936-0.936
	c0-0.516,0.42-0.936,0.936-0.936c0.516,0,0.936,0.42,0.936,0.936C30.08,23.212,29.66,23.632,29.145,23.632L29.145,23.632z
	 M30.979,21.198c0,0.187-0.15,0.336-0.336,0.336c-0.187,0-0.336-0.15-0.336-0.336s0.15-0.336,0.336-0.336
	C30.828,20.862,30.979,21.013,30.979,21.198z M31.932,21.539c-0.021-0.45-0.124-0.848-0.453-1.176
	c-0.328-0.328-0.727-0.431-1.176-0.453c-0.463-0.026-1.853-0.026-2.316,0c-0.448,0.021-0.847,0.124-1.176,0.452
	s-0.431,0.727-0.453,1.176c-0.026,0.463-0.026,1.853,0,2.316c0.021,0.45,0.124,0.848,0.453,1.176s0.727,0.431,1.176,0.453
	c0.463,0.026,1.853,0.026,2.316,0c0.45-0.021,0.848-0.124,1.176-0.453c0.328-0.328,0.431-0.727,0.453-1.176
	C31.958,23.39,31.958,22.002,31.932,21.539L31.932,21.539z M31.333,24.351c-0.098,0.246-0.287,0.435-0.534,0.534
	c-0.37,0.147-1.246,0.113-1.655,0.113c-0.408,0-1.287,0.033-1.655-0.113c-0.246-0.098-0.435-0.287-0.534-0.534
	c-0.147-0.37-0.113-1.246-0.113-1.655c0-0.408-0.033-1.287,0.113-1.655c0.098-0.246,0.287-0.435,0.534-0.534
	c0.37-0.147,1.246-0.113,1.655-0.113c0.408,0,1.287-0.033,1.655,0.113c0.246,0.098,0.435,0.287,0.534,0.534
	c0.147,0.37,0.113,1.246,0.113,1.655C31.446,23.105,31.48,23.983,31.333,24.351z"/>
<rect x="26.336" y="38.686" class="st2" width="5.425" height="5.425"/>
<rect x="40.239" y="38.686" class="st3" width="5.425" height="5.425"/>
<path class="st6" d="M38.392,40.485c0.004,0.052,0.004,0.104,0.004,0.156c0,1.581-1.203,3.402-3.402,3.402
	c-0.678,0-1.307-0.196-1.836-0.537c0.096,0.011,0.189,0.015,0.289,0.015c0.559,0,1.074-0.189,1.485-0.511
	c-0.526-0.011-0.966-0.355-1.118-0.829c0.074,0.011,0.148,0.019,0.226,0.019c0.107,0,0.215-0.015,0.315-0.041
	c-0.548-0.111-0.959-0.592-0.959-1.174V40.97c0.159,0.089,0.344,0.144,0.541,0.152c-0.322-0.215-0.533-0.581-0.533-0.996
	c0-0.222,0.059-0.426,0.163-0.603c0.589,0.726,1.474,1.2,2.466,1.251C36.011,40.684,36,40.592,36,40.499
	c0-0.659,0.533-1.196,1.196-1.196c0.344,0,0.655,0.144,0.874,0.378c0.27-0.052,0.529-0.152,0.759-0.289
	c-0.089,0.278-0.278,0.511-0.526,0.659c0.241-0.026,0.474-0.093,0.689-0.185C38.828,40.103,38.625,40.314,38.392,40.485
	L38.392,40.485z"/>
</svg>
