<?xml version="1.0" encoding="utf-8"?>
<!-- Generator: Adobe Illustrator 23.0.1, SVG Export Plug-In . SVG Version: 6.00 Build 0)  -->
<svg version="1.1" id="Layer_1" xmlns="http://www.w3.org/2000/svg" xmlns:xlink="http://www.w3.org/1999/xlink" x="0px" y="0px"
	 width="72px" height="72px" viewBox="0 0 72 72" style="enable-background:new 0 0 72 72;" xml:space="preserve">
<style type="text/css">
	.st0{fill:#515050;}
</style>
<path class="st0" d="M46.178,8.971H25.821c-2.645,0-4.79,2.145-4.79,4.79V51.2v0.94v6.298c0,2.535,2.055,4.59,4.59,4.59h20.756
	c2.535,0,4.59-2.055,4.59-4.59v-6.855V51.2V13.761C50.968,11.116,48.824,8.971,46.178,8.971z M48.926,51.2v2.036h0.005v0.418
	c0.001,0,0.001,0,0.002,0v4.785c0,1.408-1.146,2.554-2.554,2.554H25.622c-1.409,0-2.554-1.146-2.554-2.554v-4.781h0.002v-0.422
	h0.006V51.2h-0.008V13.761c0-1.519,1.235-2.754,2.754-2.754h3.545c-0.023,0.056-0.036,0.117-0.036,0.181v0.638
	c0,0.264,0.214,0.479,0.479,0.479h12.383c0.265,0,0.479-0.214,0.479-0.479v-0.638c0-0.064-0.013-0.125-0.036-0.181h3.545
	c1.519,0,2.754,1.236,2.754,2.754V51.2H48.926z"/>
<circle class="st0" cx="36" cy="56.114" r="1.723"/>
<path class="st0" d="M44.915,32.478l-8.66-8.793c-0.056-0.057-0.129-0.075-0.202-0.07c-0.073-0.005-0.147,0.014-0.202,0.07
	l-8.66,8.793c-0.102,0.103-0.101,0.268,0.003,0.369c0.051,0.05,0.116,0.075,0.183,0.075c0.067,0,0.135-0.026,0.186-0.078
	l8.491-8.622l8.491,8.622c0.051,0.052,0.118,0.078,0.186,0.078c0.066,0,0.132-0.025,0.183-0.075
	C45.016,32.746,45.017,32.58,44.915,32.478z"/>
<path class="st0" d="M43.531,44.721l-0.422-0.003l0.092-12.014c0.001-0.145-0.109-0.276-0.261-0.263
	c-0.144,0-0.26,0.115-0.261,0.259l-0.092,12.015L29.43,44.633l0.092-11.928c0.001-0.145-0.109-0.276-0.261-0.263
	c-0.144,0-0.26,0.115-0.261,0.259l-0.092,11.929l-0.329-0.002c-0.149-0.021-0.262,0.115-0.263,0.259
	c-0.001,0.144,0.115,0.261,0.259,0.262l0.374,0.002c0.042,0.085,0.113,0.153,0.215,0.153c0.001,0,0.001,0,0.002,0
	c0.101,0,0.172-0.067,0.215-0.151l13.303,0.084c0.044,0.036,0.096,0.066,0.158,0.067c0.001,0,0.001,0,0.002,0
	c0.062,0,0.113-0.029,0.158-0.065l0.524,0.003c0.001,0,0.001,0,0.002,0c0.144,0,0.26-0.116,0.261-0.259
	C43.79,44.84,43.674,44.722,43.531,44.721z"/>
<path class="st0" d="M36.053,35.913c-1.483,0-2.69-1.207-2.69-2.689s1.207-2.689,2.69-2.689c1.482,0,2.689,1.207,2.689,2.689
	S37.536,35.913,36.053,35.913z M36.053,30.926c-1.268,0-2.298,1.031-2.298,2.298s1.03,2.298,2.298,2.298
	c1.267,0,2.297-1.031,2.297-2.298S37.32,30.926,36.053,30.926z"/>
<path class="st0" d="M33.172,41.866c-0.129,0-0.24-0.092-0.263-0.219c-0.021-0.115-0.497-2.84,0.777-4.366
	c0.549-0.657,1.331-0.989,2.327-0.989c1.004,0,1.797,0.334,2.358,0.994c1.285,1.512,0.867,4.185,0.849,4.297
	c-0.021,0.128-0.131,0.223-0.261,0.224l-5.785,0.059C33.174,41.866,33.173,41.866,33.172,41.866z M36.014,36.826
	c-0.83,0-1.475,0.269-1.916,0.797c-0.924,1.105-0.776,3.051-0.694,3.706l5.317-0.054c0.067-0.647,0.172-2.553-0.757-3.644
	C37.509,37.097,36.853,36.826,36.014,36.826z"/>
</svg>
